<svg width="24" height="24" viewBox="0 0 24 24" fill="none" xmlns="http://www.w3.org/2000/svg">
<path d="M16.75 11C16.75 11.4142 16.4142 11.75 16 11.75H8C7.58579 11.75 7.25 11.4142 7.25 11C7.25 10.5858 7.58579 10.25 8 10.25H16C16.4142 10.25 16.75 10.5858 16.75 11Z" fill="#969B99"/>
<path fill-rule="evenodd" clip-rule="evenodd" d="M4.38558 8.14731L5.57431 4.89971C5.87389 4.08127 6.60048 3.4948 7.46371 3.37467C10.4734 2.95584 13.5266 2.95584 16.5364 3.37467C17.3996 3.4948 18.1262 4.08128 18.4258 4.89973L19.6146 8.14761C19.8369 8.4945 19.99 8.89103 20.0543 9.31851L20.1563 9.99635C20.5561 12.655 20.5187 15.3611 20.0456 18.0076C19.8359 19.1809 18.8723 20.0722 17.6862 20.1899L16.4558 20.312C13.4925 20.6061 10.5074 20.6061 7.54417 20.312L6.3137 20.1899C5.12763 20.0722 4.16407 19.1809 3.95434 18.0076C3.48127 15.3611 3.44389 12.655 3.84369 9.99635L3.94562 9.31851C4.00992 8.8909 4.16314 8.49426 4.38558 8.14731ZM7.67046 4.86035C10.543 4.46061 13.4571 4.46061 16.3296 4.86035C16.6437 4.90407 16.9081 5.11748 17.0172 5.41531L17.5234 6.7983C17.478 6.79169 17.4323 6.7861 17.3864 6.78153L16.4082 6.68444C13.4766 6.39347 10.5234 6.39347 7.59179 6.68445L6.6136 6.78153C6.56765 6.78609 6.52201 6.79168 6.4767 6.79828L6.98291 5.41531C7.09193 5.11748 7.35633 4.90407 7.67046 4.86035ZM5.68566 8.90159L5.70432 8.90842L5.72747 8.84517C5.97321 8.52931 6.34233 8.31583 6.76175 8.2742L7.73994 8.17711C10.573 7.89592 13.4269 7.89592 16.26 8.17711L17.2382 8.2742C17.6577 8.31584 18.0269 8.5294 18.2726 8.84537L18.2957 8.90841L18.3143 8.90161C18.4454 9.0875 18.5354 9.30505 18.571 9.54156L18.6729 10.2194C19.0484 12.7164 19.0133 15.258 18.569 17.7437C18.4774 18.2564 18.0563 18.6458 17.5381 18.6972L16.3076 18.8194C13.4429 19.1037 10.5571 19.1037 7.69232 18.8194L6.46186 18.6972C5.9436 18.6458 5.52258 18.2564 5.43094 17.7437C4.98662 15.258 4.95152 12.7164 5.32701 10.2194L5.42894 9.54156C5.46451 9.30504 5.55453 9.08749 5.68566 8.90159Z" fill="#969B99"/>
</svg>
