<svg width="24" height="24" viewBox="0 0 24 24" fill="none" xmlns="http://www.w3.org/2000/svg">
<rect x="0.5" y="0.5" width="23" height="23" rx="3.5" fill="#F0F5F3"/>
<path d="M12.0005 9.02054C10.3552 9.02054 9.02134 10.3544 9.02134 11.9997C9.02134 13.645 10.3552 14.9789 12.0005 14.9789C13.6458 14.9789 14.9797 13.645 14.9797 11.9997C14.9797 10.3544 13.6458 9.02054 12.0005 9.02054Z" fill="#95B7A9"/>
<path fill-rule="evenodd" clip-rule="evenodd" d="M12.6237 3.57166C12.2362 3.35632 11.7649 3.35632 11.3773 3.57166L4.77728 7.23832C4.36987 7.46466 4.11719 7.89409 4.11719 8.36016V15.6393C4.11719 16.1054 4.36987 16.5348 4.77728 16.7612L11.3773 20.4278C11.7649 20.6431 12.2362 20.6431 12.6237 20.4278L19.2237 16.7612C19.6312 16.5348 19.8838 16.1054 19.8838 15.6393V8.36016C19.8838 7.89409 19.6312 7.46466 19.2237 7.23832L12.6237 3.57166ZM7.64634 11.9997C7.64634 9.59497 9.59577 7.64554 12.0005 7.64554C14.4053 7.64554 16.3547 9.59497 16.3547 11.9997C16.3547 14.4045 14.4053 16.3539 12.0005 16.3539C9.59577 16.3539 7.64634 14.4045 7.64634 11.9997Z" fill="#95B7A9"/>
<rect x="0.5" y="0.5" width="23" height="23" rx="3.5" stroke="#E6EBE9"/>
</svg>
