<svg width="24" height="24" viewBox="0 0 24 24" fill="none" xmlns="http://www.w3.org/2000/svg">
<rect x="0.5" y="0.5" width="23" height="23" rx="3.5" fill="#F0F5F3"/>
<path fill-rule="evenodd" clip-rule="evenodd" d="M17.4377 6.12195L12 6L6.56225 6.12195C5.4634 6.14359 4.53183 6.91102 4.33316 7.95829C3.88895 10.2998 3.88895 12.7002 4.33316 15.0418C4.53183 16.089 5.46339 16.8564 6.56225 16.878L12 17L17.4377 16.878C18.5366 16.8564 19.4681 16.089 19.6668 15.0418C20.1111 12.7002 20.1111 10.2998 19.6668 7.95829C19.4681 6.91102 18.5366 6.14359 17.4377 6.12195ZM18.8122 10.7667C18.8122 11.1717 18.4733 11.5 18.0553 11.5H5.94467C5.52664 11.5 5.18776 11.1717 5.18776 10.7667C5.18776 10.3617 5.52664 10.0334 5.94467 10.0334H18.0553C18.4733 10.0334 18.8122 10.3617 18.8122 10.7667Z" fill="#95B7A9"/>
<rect x="0.5" y="0.5" width="23" height="23" rx="3.5" stroke="#E6EBE9"/>
</svg>
