<svg width="24" height="24" viewBox="0 0 24 24" fill="none" xmlns="http://www.w3.org/2000/svg">
<rect x="0.5" y="0.5" width="23" height="23" rx="3.5" fill="#F0F5F3"/>
<path d="M12 17.2096C11.6548 17.2096 11.375 17.4895 11.375 17.8346C11.375 18.1798 11.6548 18.4596 12 18.4596H17C17.8054 18.4596 18.4583 17.8067 18.4583 17.0013V7.0013C18.4583 6.19589 17.8054 5.54297 17 5.54297H12C11.6548 5.54297 11.375 5.82279 11.375 6.16797C11.375 6.51314 11.6548 6.79297 12 6.79297H17C17.1151 6.79297 17.2083 6.88624 17.2083 7.0013V17.0013C17.2083 17.1164 17.1151 17.2096 17 17.2096H12Z" fill="#95B7A9"/>
<path fill-rule="evenodd" clip-rule="evenodd" d="M4.70801 12.9292C4.70801 13.5045 5.17437 13.9709 5.74967 13.9709H9.59351C9.59894 14.032 9.60463 14.0932 9.61057 14.1544L9.6556 14.6176C9.72429 15.3244 10.4748 15.7476 11.1152 15.4408C12.477 14.7881 13.7925 13.8087 14.8371 12.718C15.2239 12.3141 15.2239 11.6772 14.8371 11.2733L14.7544 11.1869C13.7098 10.0963 12.477 9.20322 11.1152 8.55056C10.4748 8.24368 9.72429 8.66694 9.6556 9.3737L9.61057 9.83693C9.60463 9.89809 9.59894 9.95926 9.59351 10.0204H5.74967C5.17437 10.0204 4.70801 10.4868 4.70801 11.0621V12.9292ZM10.794 13.2754C10.7586 12.9613 10.4924 12.7209 10.173 12.7209H5.95801V11.2704H10.173C10.5031 11.2704 10.7763 11.0138 10.7968 10.6844C10.8119 10.4419 10.8312 10.1998 10.8547 9.95786L10.8678 9.8234C11.9552 10.3838 12.9448 11.1173 13.7978 11.9957C13.4416 12.3624 13.0617 12.7039 12.6607 13.0181C12.1013 13.4564 11.5012 13.8415 10.8678 14.1679L10.8547 14.0334C10.8312 13.7915 10.8119 13.5494 10.7968 13.3069C10.7961 13.2964 10.7952 13.2859 10.794 13.2754Z" fill="#95B7A9"/>
<rect x="0.5" y="0.5" width="23" height="23" rx="3.5" stroke="#E6EBE9"/>
</svg>
