<svg width="24" height="24" viewBox="0 0 24 24" fill="none" xmlns="http://www.w3.org/2000/svg">
<rect x="0.5" y="0.5" width="23" height="23" rx="3.5" fill="#F0F5F3"/>
<path fill-rule="evenodd" clip-rule="evenodd" d="M15.3458 5.2532C12.795 4.9156 10.2049 4.9156 7.65422 5.2532C6.38955 5.42059 5.41517 6.36596 5.29943 7.53792L5.18986 8.6473C4.93671 11.2105 4.93671 13.7895 5.18986 16.3527L5.29943 17.4621C5.41517 18.634 6.38955 19.5794 7.65422 19.7468C10.2049 20.0844 12.795 20.0844 15.3458 19.7468C16.6105 19.5794 17.5848 18.634 17.7006 17.4621L17.8102 16.3527C18.0633 13.7895 18.0633 11.2105 17.8102 8.6473L17.7006 7.53792C17.5848 6.36596 16.6105 5.42059 15.3458 5.2532ZM9.77406 10.1155C9.77406 9.23754 10.5468 8.52582 11.5 8.52582C12.4532 8.52582 13.2259 9.23754 13.2259 10.1155C13.2259 10.9934 12.4532 11.7052 11.5 11.7052C10.5468 11.7052 9.77406 10.9934 9.77406 10.1155ZM8.04813 15.282C8.04813 13.965 9.20723 12.8975 10.637 12.8975H12.363C13.7928 12.8975 14.9519 13.965 14.9519 15.282C14.9519 15.721 14.5655 16.0768 14.0889 16.0768H8.9111C8.4345 16.0768 8.04813 15.721 8.04813 15.282Z" fill="#95B7A9"/>
<rect x="0.5" y="0.5" width="23" height="23" rx="3.5" stroke="#E6EBE9"/>
</svg>
