<svg width="24" height="24" viewBox="0 0 24 24" fill="none" xmlns="http://www.w3.org/2000/svg">
<rect x="0.5" y="0.5" width="23" height="23" rx="3.5" fill="#F0F5F3"/>
<path d="M18.5308 16.1619V9.75158C18.5308 9.02588 17.9404 8.43554 17.2147 8.43554H15.8143V7.69104H17.7502C18.0091 7.69104 18.219 7.4812 18.219 7.22229V4.46875C18.219 4.20984 18.0091 4 17.7502 4H10.954C10.6951 4 10.4852 4.20984 10.4852 4.46875V7.22229C10.4852 7.4812 10.6951 7.69104 10.954 7.69104H12.8899V8.43554H10.0004V10.5204C10.0004 10.7793 9.79052 10.9891 9.53161 10.9891H7.12903C6.87024 10.9891 6.66028 10.7793 6.66028 10.5204V8.43554H6.31604C5.59033 8.43554 5 9.02588 5 9.75158V16.1619H18.5308ZM11.6941 15.1774H11.0923C10.8335 15.1774 10.6235 14.9675 10.6235 14.7086C10.6235 14.4498 10.8335 14.2399 11.0923 14.2399H11.6941C11.9529 14.2399 12.1628 14.4498 12.1628 14.7086C12.1628 14.9675 11.9529 15.1774 11.6941 15.1774ZM11.6941 13.8425H11.0923C10.8335 13.8425 10.6235 13.6326 10.6235 13.3738C10.6235 13.1149 10.8335 12.905 11.0923 12.905H11.6941C11.9529 12.905 12.1628 13.1149 12.1628 13.3738C12.1628 13.6326 11.9529 13.8425 11.6941 13.8425ZM11.6941 12.5076H11.0923C10.8335 12.5076 10.6235 12.2977 10.6235 12.0388C10.6235 11.78 10.8335 11.5701 11.0923 11.5701H11.6941C11.9529 11.5701 12.1628 11.78 12.1628 12.0388C12.1628 12.2977 11.9529 12.5076 11.6941 12.5076ZM12.4474 5.37683H16.1957C16.4546 5.37683 16.6644 5.58667 16.6644 5.84558C16.6644 6.10437 16.4546 6.31433 16.1957 6.31433H12.4474C12.1885 6.31433 11.9786 6.10437 11.9786 5.84558C11.9786 5.58667 12.1885 5.37683 12.4474 5.37683ZM13.9448 15.1774H13.3431C13.0842 15.1774 12.8744 14.9675 12.8744 14.7086C12.8744 14.4498 13.0842 14.2399 13.3431 14.2399H13.9448C14.2037 14.2399 14.4136 14.4498 14.4136 14.7086C14.4136 14.9675 14.2037 15.1774 13.9448 15.1774ZM13.9448 13.8425H13.3431C13.0842 13.8425 12.8744 13.6326 12.8744 13.3738C12.8744 13.1149 13.0842 12.905 13.3431 12.905H13.9448C14.2037 12.905 14.4136 13.1149 14.4136 13.3738C14.4136 13.6326 14.2037 13.8425 13.9448 13.8425ZM13.9448 12.5076H13.3431C13.0842 12.5076 12.8744 12.2977 12.8744 12.0388C12.8744 11.78 13.0842 11.5701 13.3431 11.5701H13.9448C14.2037 11.5701 14.4136 11.78 14.4136 12.0388C14.4136 12.2977 14.2037 12.5076 13.9448 12.5076ZM16.1957 15.1774H15.594C15.3351 15.1774 15.1252 14.9675 15.1252 14.7086C15.1252 14.4498 15.3351 14.2399 15.594 14.2399H16.1957C16.4546 14.2399 16.6644 14.4498 16.6644 14.7086C16.6644 14.9675 16.4546 15.1774 16.1957 15.1774ZM16.1957 13.8425H15.594C15.3351 13.8425 15.1252 13.6326 15.1252 13.3738C15.1252 13.1149 15.3351 12.905 15.594 12.905H16.1957C16.4546 12.905 16.6644 13.1149 16.6644 13.3738C16.6644 13.6326 16.4546 13.8425 16.1957 13.8425ZM16.1957 12.5076H15.594C15.3351 12.5076 15.1252 12.2977 15.1252 12.0388C15.1252 11.78 15.3351 11.5701 15.594 11.5701H16.1957C16.4546 11.5701 16.6644 11.78 16.6644 12.0388C16.6644 12.2977 16.4546 12.5076 16.1957 12.5076Z" fill="#95B7A9"/>
<path d="M5 17.0996V18.594C5 19.3694 5.63086 20.0002 6.40625 20.0002H17.1245C17.8999 20.0002 18.5308 19.3694 18.5308 18.594V17.0996H5ZM10.4187 17.925H13.0436C13.3025 17.925 13.5123 18.1349 13.5123 18.3938C13.5123 18.6526 13.3025 18.8625 13.0436 18.8625H10.4187C10.1598 18.8625 9.94995 18.6526 9.94995 18.3938C9.94995 18.1349 10.1598 17.925 10.4187 17.925Z" fill="#95B7A9"/>
<path d="M7.59766 7.60547H9.06274V10.0521H7.59766V7.60547Z" fill="#95B7A9"/>
<rect x="0.5" y="0.5" width="23" height="23" rx="3.5" stroke="#E6EBE9"/>
</svg>
