<svg width="24" height="24" viewBox="0 0 24 24" fill="none" xmlns="http://www.w3.org/2000/svg">
<path fill-rule="evenodd" clip-rule="evenodd" d="M8.92954 4.46984C7.65833 4.32776 6.34242 4.32776 5.0712 4.46984C4.76231 4.50436 4.51871 4.74895 4.48397 5.04601C4.33216 6.34395 4.33216 7.65516 4.48397 8.95311C4.51871 9.25016 4.76231 9.49475 5.0712 9.52928C6.34242 9.67135 7.65833 9.67135 8.92954 9.52928C9.23843 9.49475 9.48203 9.25016 9.51678 8.95311C9.66858 7.65516 9.66858 6.34395 9.51678 5.04601C9.48203 4.74895 9.23843 4.50436 8.92954 4.46984ZM4.90459 2.97912C6.28654 2.82467 7.71421 2.82467 9.09615 2.97912C10.087 3.08986 10.8895 3.86985 11.0066 4.87176C11.172 6.28547 11.172 7.71364 11.0066 9.12736C10.8895 10.1293 10.087 10.9093 9.09615 11.02C7.71421 11.1745 6.28654 11.1745 4.90459 11.02C3.91375 10.9093 3.11131 10.1293 2.99413 9.12736C2.82878 7.71364 2.82878 6.28547 2.99413 4.87176C3.11131 3.86985 3.91375 3.08986 4.90459 2.97912Z" fill="#969B99"/>
<path fill-rule="evenodd" clip-rule="evenodd" d="M8.92954 14.4699C7.65833 14.3278 6.34242 14.3278 5.0712 14.4699C4.76231 14.5044 4.51871 14.749 4.48397 15.0461C4.33216 16.344 4.33216 17.6552 4.48397 18.9531C4.51871 19.2502 4.76231 19.4948 5.0712 19.5293C6.34242 19.6714 7.65833 19.6714 8.92954 19.5293C9.23843 19.4948 9.48203 19.2502 9.51678 18.9531C9.66858 17.6552 9.66858 16.344 9.51678 15.0461C9.48203 14.749 9.23843 14.5044 8.92954 14.4699ZM4.90459 12.9792C6.28654 12.8247 7.71421 12.8247 9.09615 12.9792C10.087 13.0899 10.8895 13.8699 11.0066 14.8718C11.172 16.2855 11.172 17.7137 11.0066 19.1274C10.8895 20.1293 10.087 20.9093 9.09615 21.02C7.71421 21.1745 6.28654 21.1745 4.90459 21.02C3.91375 20.9093 3.11131 20.1293 2.99413 19.1274C2.82878 17.7137 2.82878 16.2855 2.99413 14.8718C3.11131 13.8699 3.91375 13.0899 4.90459 12.9792Z" fill="#969B99"/>
<path fill-rule="evenodd" clip-rule="evenodd" d="M18.9296 4.46984C17.6583 4.32776 16.3424 4.32776 15.0712 4.46984C14.7623 4.50436 14.5187 4.74895 14.484 5.04601C14.3322 6.34395 14.3322 7.65516 14.484 8.95311C14.5187 9.25016 14.7623 9.49475 15.0712 9.52928C16.3424 9.67135 17.6583 9.67135 18.9296 9.52928C19.2385 9.49475 19.4821 9.25016 19.5168 8.95311C19.6686 7.65516 19.6686 6.34395 19.5168 5.04601C19.4821 4.74895 19.2385 4.50436 18.9296 4.46984ZM14.9046 2.97912C16.2866 2.82467 17.7142 2.82467 19.0962 2.97912C20.087 3.08986 20.8895 3.86985 21.0066 4.87176C21.172 6.28547 21.172 7.71364 21.0066 9.12736C20.8895 10.1293 20.087 10.9093 19.0962 11.02C17.7142 11.1745 16.2866 11.1745 14.9046 11.02C13.9138 10.9093 13.1113 10.1293 12.9941 9.12736C12.8288 7.71364 12.8288 6.28547 12.9941 4.87176C13.1113 3.86985 13.9138 3.08986 14.9046 2.97912Z" fill="#969B99"/>
<path fill-rule="evenodd" clip-rule="evenodd" d="M18.9296 14.4699C17.6583 14.3278 16.3424 14.3278 15.0712 14.4699C14.7623 14.5044 14.5187 14.749 14.484 15.0461C14.3322 16.344 14.3322 17.6552 14.484 18.9531C14.5187 19.2502 14.7623 19.4948 15.0712 19.5293C16.3424 19.6714 17.6583 19.6714 18.9296 19.5293C19.2385 19.4948 19.4821 19.2502 19.5168 18.9531C19.6686 17.6552 19.6686 16.344 19.5168 15.0461C19.4821 14.749 19.2385 14.5044 18.9296 14.4699ZM14.9046 12.9792C16.2866 12.8247 17.7142 12.8247 19.0962 12.9792C20.087 13.0899 20.8895 13.8699 21.0066 14.8718C21.172 16.2855 21.172 17.7137 21.0066 19.1274C20.8895 20.1293 20.087 20.9093 19.0962 21.02C17.7142 21.1745 16.2866 21.1745 14.9046 21.02C13.9138 20.9093 13.1113 20.1293 12.9941 19.1274C12.8288 17.7137 12.8288 16.2855 12.9941 14.8718C13.1113 13.8699 13.9138 13.0899 14.9046 12.9792Z" fill="#969B99"/>
</svg>
