<?xml version="1.0" standalone="no"?>
<!DOCTYPE svg PUBLIC "-//W3C//DTD SVG 20010904//EN"
 "http://www.w3.org/TR/2001/REC-SVG-20010904/DTD/svg10.dtd">
<svg version="1.0" xmlns="http://www.w3.org/2000/svg"
 width="1024.000000pt" height="1024.000000pt" viewBox="0 0 1024.000000 1024.000000"
 preserveAspectRatio="xMidYMid meet">

<g transform="translate(0.000000,1024.000000) scale(0.100000,-0.100000)"
fill="#000000" stroke="none">
<path d="M6608 7523 c-26 -4 -28 -8 -28 -48 0 -53 8 -75 26 -75 9 0 14 -12 14
-34 0 -18 7 -49 14 -67 l15 -34 7 33 c4 19 15 39 25 45 11 7 19 23 19 36 0 24
1 24 71 17 40 -3 115 -21 168 -39 91 -30 96 -33 93 -59 -2 -25 -1 -26 27 -18
16 4 31 6 33 4 12 -11 -12 -130 -31 -154 l-20 -28 23 -15 c27 -18 66 -12 66
11 0 9 8 34 19 56 10 23 24 60 31 84 15 47 24 48 88 11 17 -10 32 -15 32 -10
0 4 -27 38 -60 74 -98 107 -277 183 -485 207 -92 10 -99 10 -147 3z"/>
<path d="M3613 7503 c-24 -8 -43 -21 -43 -29 0 -11 98 -614 114 -706 5 -26 3
-28 -25 -28 -32 0 -69 -15 -81 -34 -13 -19 -9 -60 8 -84 12 -18 25 -22 70 -22
30 0 54 -4 54 -10 0 -5 18 -116 41 -247 23 -131 43 -251 46 -268 5 -32 -76 87
-474 702 l-228 351 -21 -19 c-12 -11 -27 -30 -33 -43 -12 -21 10 -58 301 -507
173 -266 318 -490 323 -498 4 -7 -55 29 -131 81 -410 281 -720 491 -730 495
-10 4 -51 -84 -43 -91 2 -2 200 -136 439 -299 440 -300 503 -345 465 -332 -11
3 -51 15 -90 25 -38 11 -258 82 -488 159 -284 95 -420 136 -423 128 -2 -7 -5
-29 -7 -51 l-2 -38 455 -154 c250 -84 460 -156 465 -159 15 -7 -167 2 -578 32
-202 14 -370 23 -373 20 -4 -3 -9 -26 -11 -52 -6 -44 -5 -45 23 -45 16 0 240
-16 497 -35 257 -19 478 -35 490 -35 49 -1 -25 -22 -473 -134 -256 -65 -479
-121 -496 -127 -30 -9 -31 -11 -26 -57 2 -26 5 -48 6 -49 1 -1 231 56 511 127
281 71 513 129 517 127 4 -1 -212 -116 -480 -254 l-487 -253 2 -41 c1 -23 6
-46 12 -52 6 -6 175 77 463 226 249 129 473 245 498 257 36 17 -43 -66 -388
-413 l-434 -434 22 -44 c12 -24 24 -46 27 -49 2 -2 186 178 409 400 224 223
405 400 403 394 -2 -5 -131 -258 -286 -561 -156 -304 -283 -556 -283 -560 0
-5 15 -24 34 -42 l33 -32 40 73 c22 40 161 310 309 600 148 290 270 523 272
518 2 -4 -71 -291 -162 -636 -90 -346 -171 -655 -180 -687 l-15 -59 46 -20
c24 -11 46 -18 47 -16 2 1 81 302 176 668 95 366 177 669 182 674 4 5 5 -33 3
-85 -3 -52 -12 -312 -20 -579 -8 -267 -18 -547 -21 -622 l-6 -138 50 0 50 0 6
103 c3 56 13 347 21 647 9 300 19 571 23 603 7 56 13 30 154 -579 81 -350 150
-639 152 -641 6 -7 86 41 86 51 0 5 -63 281 -140 615 -78 333 -143 617 -146
631 -2 14 115 -215 261 -509 l265 -534 35 39 c19 21 34 42 35 47 0 4 -84 175
-186 380 -204 406 -287 580 -275 573 4 -3 147 -163 317 -355 l309 -351 24 49
25 50 -65 73 c-386 434 -680 770 -677 773 1 2 194 -120 427 -271 233 -151 427
-274 431 -274 10 0 31 93 23 100 -4 4 -181 118 -392 254 -400 258 -479 312
-446 303 11 -3 49 -13 85 -22 36 -9 231 -61 434 -116 202 -55 375 -98 382 -95
9 3 14 21 14 49 l0 44 -227 62 c-406 110 -557 151 -613 168 l-55 16 450 46
450 46 3 48 c2 33 -1 49 -10 52 -8 3 -217 -15 -465 -40 -248 -25 -457 -45
-464 -45 -8 0 93 50 224 110 225 104 241 110 302 110 l65 0 0 31 c0 28 5 33
68 60 183 82 222 103 222 118 0 22 -20 91 -26 91 -7 0 -339 -152 -484 -222
-112 -54 -310 -146 -397 -184 -70 -30 -57 -17 337 337 l115 103 9 -27 c9 -25
14 -26 66 -26 32 1 63 5 70 9 9 5 11 33 9 94 l-4 87 87 77 86 76 -45 89 -45
90 -67 -6 c-38 -3 -72 -2 -77 3 -5 5 -41 5 -83 -1 -41 -5 -76 -7 -79 -4 -5 5
60 125 92 170 12 17 27 43 34 58 11 26 10 32 -19 68 -17 21 -32 39 -34 39 -2
0 -12 -15 -23 -33 -19 -33 -22 -34 -101 -40 -53 -4 -88 -3 -100 5 -18 11 -238
-3 -260 -17 -16 -9 -14 -60 3 -74 10 -9 43 -9 131 -1 80 8 120 8 124 1 4 -5
33 -11 64 -13 l58 -3 -51 -85 c-28 -47 -58 -91 -68 -98 -12 -9 -41 -12 -94
-10 -43 2 -79 0 -80 -4 -2 -4 -38 -10 -82 -14 l-78 -7 5 29 c3 16 11 67 17
114 6 47 26 194 44 327 l32 243 -45 15 c-24 8 -47 13 -49 10 -3 -2 -18 -100
-34 -217 -21 -155 -33 -216 -44 -225 -12 -9 -14 -22 -9 -57 4 -25 2 -91 -5
-146 l-13 -99 -41 -5 c-23 -3 -69 -8 -103 -11 -61 -6 -61 -6 -67 22 -3 15 -31
181 -61 368 -31 187 -59 347 -63 356 -6 15 -11 15 -49 2z m1207 -834 c-14 -12
-67 -60 -119 -108 -52 -47 -129 -117 -171 -156 -42 -38 -125 -114 -185 -167
-61 -53 -128 -113 -150 -134 -22 -20 -51 -46 -64 -58 l-25 -21 21 35 c11 19
47 80 80 135 33 55 81 139 107 187 39 73 51 87 74 90 25 3 34 21 12 24 -5 1
-13 2 -17 3 -3 0 1 9 9 19 8 9 30 44 48 77 18 33 35 62 37 65 6 6 229 27 308
28 l60 1 -25 -20z m-480 -24 c0 -3 -67 -122 -150 -265 -82 -143 -150 -263
-150 -267 0 -4 -10 -19 -21 -33 -17 -20 -20 -21 -14 -5 3 11 11 56 16 100 5
44 16 118 24 165 8 47 20 131 26 187 l12 102 51 5 c136 15 206 19 206 11z
m-370 -32 c0 -5 -9 -75 -20 -158 -12 -82 -26 -189 -32 -238 -7 -48 -15 -84
-18 -80 -6 7 -80 442 -80 465 0 4 17 9 38 11 70 7 112 7 112 0z m788 -190 c-3
-38 -3 -38 -53 -41 l-50 -3 45 40 c25 22 49 40 53 41 5 0 7 -17 5 -37z"/>
<path d="M7877 7349 c-38 -10 -53 -25 -66 -60 -9 -26 -8 -29 10 -29 10 0 19 6
19 13 0 18 32 47 53 47 19 0 33 19 21 30 -5 4 -22 4 -37 -1z"/>
<path d="M5643 7333 c-18 -4 -21 -8 -14 -22 6 -10 13 -52 17 -94 l7 -77 -34
-1 c-40 -1 -85 -6 -116 -14 -20 -5 -23 -12 -23 -60 0 -29 4 -57 10 -60 12 -7
209 14 230 24 8 5 20 33 26 64 10 50 9 56 -6 60 -14 3 -19 21 -25 81 -6 69
-23 109 -43 105 -4 -1 -17 -4 -29 -6z"/>
<path d="M7006 7216 c-3 -13 -9 -32 -12 -43 -5 -12 6 -6 29 16 43 41 46 51 13
51 -17 0 -26 -7 -30 -24z"/>
<path d="M8010 7218 c0 -12 62 -68 74 -68 17 0 2 41 -20 59 -30 24 -54 27 -54
9z"/>
<path d="M7870 7214 c0 -4 8 -16 17 -26 13 -14 14 -21 5 -30 -9 -9 -19 -5 -40
15 -35 33 -42 33 -72 2 -18 -19 -26 -22 -37 -14 -10 9 -10 15 -2 25 7 8 7 14
1 14 -21 0 -97 -31 -114 -47 -16 -15 -17 -18 -4 -25 10 -6 22 -2 36 12 24 24
30 24 54 7 11 -8 17 -23 14 -38 -2 -16 5 -30 19 -42 49 -39 26 -43 -162 -24
-11 1 -19 -3 -18 -9 1 -7 -156 -18 -470 -33 -361 -17 -477 -26 -494 -37 -26
-17 -31 -60 -9 -89 17 -23 -30 -24 746 15 322 17 597 30 613 30 32 0 67 31 67
60 0 12 -11 32 -25 45 l-24 25 39 0 c27 0 40 4 40 13 0 21 -54 92 -92 120 -34
26 -88 45 -88 31z"/>
<path d="M5865 7029 c-9 -13 -7 -15 28 -23 23 -5 27 -3 27 14 0 15 -7 20 -24
20 -14 0 -28 -5 -31 -11z"/>
<path d="M5118 6863 l-38 -4 34 -67 34 -68 43 4 42 4 -31 14 c-42 17 -57 56
-38 95 10 20 11 28 3 27 -7 -1 -29 -3 -49 -5z"/>
<path d="M8106 6774 c-5 -14 -4 -15 9 -4 17 14 19 20 6 20 -5 0 -12 -7 -15
-16z"/>
<path d="M7758 6773 c-40 -4 -53 -28 -20 -36 15 -4 15 -5 -2 -6 -12 -1 -16 -6
-12 -16 3 -8 9 -22 12 -30 4 -9 -1 -17 -10 -21 -11 -4 -16 -19 -16 -49 l0 -42
32 6 c31 6 33 10 41 65 7 50 6 60 -10 72 -17 13 -17 13 5 14 17 0 22 6 22 25
0 14 -1 24 -2 23 -2 -1 -20 -3 -40 -5z"/>
<path d="M8143 6672 c10 -10 17 -24 17 -30 0 -20 -34 -13 -48 8 -17 28 -32 16
-32 -24 l0 -33 53 4 c73 6 77 9 77 42 0 33 -22 51 -61 51 -21 0 -21 -1 -6 -18z"/>
<path d="M6240 6660 c20 -13 57 -13 65 0 4 6 -11 10 -37 10 -31 0 -39 -3 -28
-10z"/>
<path d="M8041 6385 c-17 -113 -20 -106 51 -103 l63 3 12 70 c19 112 22 105
-51 105 l-64 0 -11 -75z"/>
<path d="M7697 6420 c-3 -12 -11 -18 -19 -15 -22 9 -41 -21 -34 -51 8 -31 17
-25 65 41 29 40 30 45 13 45 -11 0 -22 -9 -25 -20z"/>
<path d="M7795 5675 c-4 -47 -10 -87 -14 -89 -3 -2 -128 29 -277 69 l-270 72
-122 -5 c-67 -2 -122 -8 -122 -11 0 -3 174 -52 387 -109 213 -57 389 -105 390
-106 6 -5 -28 -138 -58 -233 l-30 -92 -107 79 c-59 43 -222 165 -362 270
l-255 191 -130 -6 c-71 -3 -182 -8 -245 -12 l-115 -6 -250 -360 c-137 -198
-270 -389 -293 -423 l-44 -63 22 -31 c12 -16 25 -30 29 -30 5 0 147 200 317
444 170 245 310 442 312 438 1 -5 -90 -255 -204 -557 l-206 -550 29 -22 c15
-13 32 -22 37 -20 4 1 96 238 204 525 107 287 197 520 199 518 3 -2 -14 -268
-37 -591 -23 -323 -40 -589 -37 -591 2 -3 20 -7 40 -11 l35 -5 6 58 c3 33 22
291 41 574 19 283 38 535 41 560 6 39 25 -38 139 -550 73 -327 130 -598 126
-602 -4 -4 -43 -17 -86 -29 -114 -30 -317 -31 -430 0 -161 43 -313 131 -448
260 -112 108 -197 225 -277 385 -80 159 -131 307 -161 468 -11 62 -23 123 -25
136 -4 20 -10 23 -47 20 l-42 -3 3 -40 c2 -22 14 -95 28 -163 97 -487 372
-901 725 -1091 255 -138 544 -156 806 -51 443 178 778 685 857 1298 23 180 24
172 -28 172 l-44 0 -7 -85z m-703 -516 c146 -239 271 -446 278 -459 12 -23 10
-28 -51 -83 -68 -62 -232 -177 -253 -177 -8 0 -55 195 -141 583 -71 320 -130
593 -133 607 -5 32 -27 66 300 -471z m199 196 c189 -141 345 -260 347 -265 10
-27 -177 -335 -198 -328 -6 2 -120 185 -256 408 -135 223 -255 421 -267 440
l-22 35 27 -17 c14 -9 180 -132 369 -273z"/>
<path d="M6364 5683 l-61 -4 -279 -230 c-356 -294 -328 -266 -309 -313 15 -34
18 -37 33 -24 9 8 161 133 337 278 338 278 365 301 350 298 -6 -1 -37 -3 -71
-5z"/>
<path d="M5890 5658 c-134 -7 -278 -33 -297 -52 -2 -2 -1 -20 3 -41 8 -43 -24
-47 296 40 144 39 218 63 193 63 -22 -1 -110 -5 -195 -10z"/>
<path d="M3250 3294 c-135 -35 -274 -132 -349 -243 -71 -104 -100 -191 -108
-321 -10 -183 48 -333 181 -466 123 -122 253 -177 426 -178 107 0 173 15 276
65 96 47 209 145 198 172 -10 28 -38 20 -79 -24 -81 -85 -204 -146 -327 -163
l-38 -5 0 203 c0 203 -5 231 -36 219 -11 -4 -14 -45 -14 -208 0 -112 -4 -206
-8 -209 -5 -3 -40 1 -78 9 -73 16 -189 68 -239 109 l-30 25 143 144 c103 105
141 149 136 161 -3 9 -11 16 -17 16 -7 0 -76 -64 -155 -142 l-143 -143 -25 30
c-62 76 -124 230 -124 312 l0 23 214 0 c218 0 231 2 219 38 -4 9 -56 12 -219
12 -244 0 -224 -10 -199 98 18 76 54 150 108 220 l40 53 142 -141 c138 -138
170 -159 183 -122 2 7 -60 78 -138 157 l-142 143 53 36 c65 43 154 75 232 83
l57 6 0 -196 c0 -197 5 -222 35 -197 12 10 15 48 15 201 l0 189 23 0 c36 0
133 -28 180 -51 23 -12 66 -39 95 -61 29 -22 60 -37 68 -34 62 24 -113 147
-258 181 -79 18 -226 18 -298 -1z"/>
<path d="M5019 3046 c-125 -44 -187 -139 -197 -297 -7 -127 21 -213 91 -283
38 -38 66 -56 102 -66 54 -16 140 -19 195 -8 33 7 37 5 63 -32 26 -36 32 -40
73 -40 l45 0 -42 55 -41 54 36 45 c54 65 78 142 78 251 0 69 -6 104 -23 149
-30 81 -98 149 -170 170 -63 19 -160 20 -210 2z m189 -71 c103 -44 157 -174
131 -320 -10 -59 -59 -156 -77 -155 -4 1 -19 19 -34 40 -25 35 -32 40 -68 40
-22 0 -40 -2 -40 -5 0 -3 16 -27 35 -54 19 -26 35 -51 35 -54 0 -3 -17 -8 -38
-12 -103 -17 -206 52 -237 159 -23 78 -17 195 12 251 25 46 77 100 113 114 38
15 126 13 168 -4z"/>
<path d="M3540 2719 l0 -331 173 4 c167 3 173 4 219 30 124 74 113 265 -19
309 l-33 11 31 21 c52 36 73 71 73 125 0 65 -28 111 -84 140 -40 20 -58 22
-202 22 l-158 0 0 -331z m310 246 c36 -19 50 -43 50 -87 0 -76 -52 -108 -180
-108 l-90 0 0 105 0 105 95 0 c66 0 105 -5 125 -15z m28 -289 c39 -20 52 -43
52 -96 0 -88 -39 -111 -192 -118 l-108 -5 0 123 0 123 108 -5 c72 -4 119 -11
140 -22z"/>
<path d="M4128 3038 c-37 -31 -20 -88 27 -88 28 0 56 35 48 59 -7 19 -32 41
-48 41 -6 0 -18 -6 -27 -12z"/>
<path d="M6350 2918 l0 -132 -32 31 c-46 43 -70 53 -128 53 -93 0 -157 -51
-186 -147 -40 -132 12 -286 109 -322 36 -14 118 -14 153 -1 14 6 39 24 55 41
l29 31 0 -41 c0 -40 1 -41 35 -41 l35 0 0 330 0 330 -35 0 -35 0 0 -132z m-63
-139 c80 -76 81 -213 2 -292 -37 -38 -42 -39 -89 -35 -86 9 -130 68 -130 177
0 87 30 148 85 172 35 15 104 3 132 -22z"/>
<path d="M4454 2866 c-17 -8 -39 -24 -48 -37 l-16 -23 0 32 c0 31 -2 32 -40
32 l-40 0 0 -240 0 -240 40 0 40 0 0 161 c0 125 3 168 15 194 18 37 51 55 101
55 35 0 35 1 32 38 -3 31 -7 37 -28 39 -14 2 -39 -4 -56 -11z"/>
<path d="M4117 2864 c-4 -4 -7 -112 -7 -241 l0 -233 45 0 45 0 -2 238 -3 237
-35 3 c-20 2 -39 0 -43 -4z"/>
<path d="M5613 2849 c-44 -22 -68 -50 -79 -93 -6 -24 -4 -26 30 -26 29 0 39 5
47 24 17 38 68 60 120 53 57 -7 89 -43 89 -96 l0 -39 -92 -7 c-112 -8 -170
-31 -198 -77 -24 -40 -25 -79 -3 -125 24 -50 66 -73 136 -73 64 0 105 17 135
55 27 34 32 32 32 -15 0 -39 1 -40 35 -40 l35 0 0 178 c0 210 -11 247 -79 281
-55 29 -151 28 -208 0z m207 -280 c0 -35 -6 -48 -39 -80 -35 -35 -44 -39 -88
-39 -65 0 -103 27 -103 74 0 59 48 84 163 85 l67 1 0 -41z"/>
<path d="M6635 2856 c-30 -13 -85 -69 -85 -86 0 -5 -3 -15 -6 -24 -5 -13 2
-16 35 -16 27 0 41 4 41 13 0 28 49 60 98 65 43 4 53 1 81 -24 24 -22 32 -38
34 -69 l2 -40 -105 -11 c-154 -16 -201 -48 -202 -137 -2 -86 54 -137 152 -137
58 0 81 10 128 53 l32 31 0 -42 c0 -41 1 -42 35 -42 l35 0 0 180 c0 203 -7
232 -61 271 -27 19 -49 25 -109 27 -48 1 -86 -3 -105 -12z m201 -287 c-13 -79
-60 -119 -141 -119 -77 0 -119 62 -80 118 21 28 63 40 154 41 l74 1 -7 -41z"/>
<path d="M7030 2631 l0 -241 35 0 35 0 0 165 c0 184 7 213 60 240 46 24 87 19
121 -14 l29 -29 0 -181 0 -181 40 0 40 0 0 174 c0 173 0 175 26 205 47 56 150
48 174 -15 6 -14 10 -102 10 -195 l0 -169 35 0 35 0 0 193 c0 173 -2 195 -20
224 -25 41 -68 63 -125 63 -58 0 -109 -21 -130 -54 -21 -31 -32 -33 -40 -5
-24 74 -196 79 -237 6 -12 -21 -13 -21 -18 13 -4 31 -9 35 -37 38 l-33 3 0
-240z"/>
<path d="M3368 2749 c-21 -12 -24 -69 -6 -87 17 -17 64 -15 82 4 47 46 -18
117 -76 83z"/>
</g>
</svg>
