<svg width="26" height="26" viewBox="0 0 26 26" fill="none" xmlns="http://www.w3.org/2000/svg">
<path fill-rule="evenodd" clip-rule="evenodd" d="M21.1804 13.0007C21.1804 12.5634 20.826 12.209 20.3888 12.209H5.611C5.17378 12.209 4.81934 12.5634 4.81934 13.0007C4.81934 13.4379 5.17378 13.7923 5.611 13.7923H20.3888C20.826 13.7923 21.1804 13.4379 21.1804 13.0007Z" fill="white"/>
<path fill-rule="evenodd" clip-rule="evenodd" d="M21.1804 7.72331C21.1804 7.28609 20.826 6.93164 20.3888 6.93164H5.611C5.17378 6.93164 4.81934 7.28609 4.81934 7.72331C4.81934 8.16053 5.17378 8.51497 5.611 8.51497H20.3888C20.826 8.51497 21.1804 8.16053 21.1804 7.72331Z" fill="white"/>
<path fill-rule="evenodd" clip-rule="evenodd" d="M21.1804 18.278C21.1804 17.8408 20.826 17.4863 20.3888 17.4863H5.611C5.17378 17.4863 4.81934 17.8408 4.81934 18.278C4.81934 18.7152 5.17378 19.0697 5.611 19.0697H20.3888C20.826 19.0697 21.1804 18.7152 21.1804 18.278Z" fill="white"/>
</svg>
