<svg width="24" height="24" viewBox="0 0 24 24" fill="none" xmlns="http://www.w3.org/2000/svg">
<path d="M17.75 11C17.0596 11 16.5 11.5596 16.5 12.25C16.5 12.9404 17.0596 13.5 17.75 13.5C18.4404 13.5 19 12.9404 19 12.25C19 11.5596 18.4404 11 17.75 11Z" fill="#969B99"/>
<path fill-rule="evenodd" clip-rule="evenodd" d="M4.17271 8.11578L6.24957 7.88495V3.91348C6.24957 3.27019 6.73963 2.73282 7.38019 2.67369C10.4533 2.39002 13.5459 2.39002 16.619 2.67369C17.2595 2.73282 17.7496 3.27019 17.7496 3.91348V7.88494L19.8265 8.11578C20.5928 8.20096 21.225 8.75438 21.4108 9.50269C21.9766 11.7816 21.9766 14.1642 21.4108 16.443L21.2275 17.1812C21.1445 17.5157 20.8442 17.7505 20.4996 17.7505H17.7496V20.0835C17.7496 20.7055 17.2782 21.2264 16.6593 21.2883C13.5606 21.5982 10.4386 21.5982 7.33988 21.2883C6.72092 21.2264 6.24957 20.7055 6.24957 20.0835V17.7505H3.4996C3.15499 17.7505 2.85473 17.5157 2.7717 17.1812L2.58841 16.443C2.02261 14.1642 2.02261 11.7816 2.58841 9.50269C2.77421 8.75438 3.40639 8.20096 4.17271 8.11578ZM16.2496 7.74003C13.421 7.50809 10.5782 7.50809 7.74957 7.74004V4.14653C10.5775 3.89908 13.4217 3.89908 16.2496 4.14653V7.74003ZM16.2496 16.5021C16.2478 16.3442 16.1466 16.2082 16.0029 16.1575C13.3393 15.9213 10.66 15.9213 7.99631 16.1574C7.85134 16.2087 7.7496 16.3467 7.7496 16.5065V17.0005L7.74957 17.0068V19.821C10.5767 20.0872 13.4225 20.0872 16.2496 19.821V16.5021ZM19.9131 16.2505H17.7496V15.9175C17.7496 15.2955 17.2782 14.7746 16.6593 14.7127C16.5239 14.6992 16.3884 14.6862 16.2529 14.6739C16.1961 14.6624 16.1384 14.6534 16.0797 14.6471C13.3675 14.3549 10.6317 14.3549 7.91949 14.6471C7.86086 14.6534 7.80311 14.6624 7.74635 14.6739C7.61082 14.6862 7.47533 14.6992 7.33988 14.7127C6.72092 14.7746 6.24957 15.2955 6.24957 15.9175V16.2505H4.08615L4.04421 16.0816C3.53734 14.0401 3.53734 11.9057 4.04421 9.86415C4.07871 9.72519 4.19611 9.62242 4.33841 9.6066L6.42073 9.37516C10.1286 8.96304 13.8707 8.96304 17.5785 9.37516L19.6608 9.6066C19.8031 9.62242 19.9205 9.72519 19.955 9.86415C20.4619 11.9057 20.4619 14.0401 19.955 16.0816L19.9131 16.2505Z" fill="#969B99"/>
</svg>
