<svg width="24" height="24" viewBox="0 0 24 24" fill="none" xmlns="http://www.w3.org/2000/svg">
<path d="M6.54518 8.16192C6.32996 8.10514 6.15108 7.9557 6.05692 7.75401C5.96276 7.55232 5.96305 7.31923 6.05771 7.11778L7.71846 3.58339C7.84222 3.32 8.10717 3.15198 8.39819 3.15234C8.6892 3.1527 8.95373 3.32138 9.07684 3.58507L9.80947 5.1543C9.83566 5.14401 9.86271 5.13508 9.89054 5.12762C14.2378 3.96276 18.7064 6.54266 19.8712 10.89C21.0361 15.2374 18.4562 19.7059 14.1089 20.8708C9.76155 22.0356 5.29302 19.4557 4.12815 15.1084C3.75772 13.7259 3.76606 12.3291 4.09049 11.0303C4.19088 10.6285 4.59804 10.3841 4.9999 10.4845C5.40177 10.5848 5.64616 10.992 5.54577 11.3939C5.28148 12.4519 5.27419 13.5899 5.57704 14.7202C6.52749 18.2673 10.1735 20.3723 13.7206 19.4219C17.2678 18.4714 19.3728 14.8254 18.4224 11.2783C17.4874 7.78909 13.9444 5.69528 10.4528 6.53233L11.192 8.11563C11.3151 8.37932 11.2745 8.69043 11.088 8.91376C10.9014 9.13709 10.6025 9.23233 10.3211 9.1581L6.54518 8.16192Z" fill="#969B99"/>
</svg>
