<svg width="24" height="24" viewBox="0 0 24 24" fill="none" xmlns="http://www.w3.org/2000/svg">
<path d="M10 2.25C9.58579 2.25 9.25 2.58579 9.25 3V3.75H5C4.58579 3.75 4.25 4.08579 4.25 4.5C4.25 4.91421 4.58579 5.25 5 5.25H19C19.4142 5.25 19.75 4.91421 19.75 4.5C19.75 4.08579 19.4142 3.75 19 3.75H14.75V3C14.75 2.58579 14.4142 2.25 14 2.25H10Z" fill="white"/>
<path d="M10 10.6504C10.4142 10.6504 10.75 10.9862 10.75 11.4004V18.4004C10.75 18.8146 10.4142 19.1504 10 19.1504C9.58579 19.1504 9.25 18.8146 9.25 18.4004V11.4004C9.25 10.9862 9.58579 10.6504 10 10.6504Z" fill="white"/>
<path d="M14.75 11.4004C14.75 10.9862 14.4142 10.6504 14 10.6504C13.5858 10.6504 13.25 10.9862 13.25 11.4004V18.4004C13.25 18.8146 13.5858 19.1504 14 19.1504C14.4142 19.1504 14.75 18.8146 14.75 18.4004V11.4004Z" fill="white"/>
<path fill-rule="evenodd" clip-rule="evenodd" d="M5.99179 7.91718C6.034 7.53735 6.35505 7.25 6.73721 7.25H17.2636C17.6457 7.25 17.9668 7.53735 18.009 7.91718L18.2091 9.71852C18.5719 12.9838 18.5719 16.2793 18.2091 19.5446L18.1894 19.722C18.0454 21.0181 17.0408 22.0517 15.7493 22.2325C13.2622 22.5807 10.7386 22.5807 8.25145 22.2325C6.95991 22.0517 5.95537 21.0181 5.81135 19.722L5.79165 19.5446C5.42883 16.2793 5.42883 12.9838 5.79165 9.71852L5.99179 7.91718ZM7.40849 8.75L7.28247 9.88417C6.93189 13.0394 6.93189 16.2238 7.28247 19.379L7.30217 19.5563C7.37048 20.171 7.84689 20.6612 8.45942 20.747C10.8086 21.0758 13.1922 21.0758 15.5413 20.747C16.1539 20.6612 16.6303 20.171 16.6986 19.5563L16.7183 19.379C17.0689 16.2238 17.0689 13.0394 16.7183 9.88417L16.5923 8.75H7.40849Z" fill="white"/>
</svg>
