<svg width="730" height="432" viewBox="0 0 730 432" fill="none" xmlns="http://www.w3.org/2000/svg">
<path opacity="0.5" fill-rule="evenodd" clip-rule="evenodd" d="M400.111 35.306C409.312 31.1661 421.524 20.3217 431.917 21.7538C395.571 44.9725 377.878 90.6358 377.878 127.319C377.878 164.002 388.695 223.227 427.669 246.68C384.58 234.227 376.148 209.355 354.903 199.53C333.02 189.413 323.499 176.901 308.137 182.097C301.606 184.306 295.973 185.694 295.619 185.182C295.262 184.67 299.954 178.957 306.044 172.487L317.114 160.725L298.451 159.635C276.493 158.352 272.289 155.78 258.522 135.193C252.761 126.58 246.598 120.004 243.29 118.943C238.357 117.362 238.145 116.932 241.392 115.085C243.404 113.94 250.448 112.921 257.048 112.818C267.921 112.652 270.187 113.626 281.173 123.189C289.174 130.153 295.474 133.745 299.69 133.745C308.298 133.745 309.649 129.467 301.72 127.319C297.955 126.3 292.849 121.883 289.243 116.526C281.807 105.474 272.439 99.5154 262.02 99.2094L254.191 98.9771L279.787 87.3688L271.56 82.5552C265.832 79.2066 258.944 77.816 248.885 77.9741L234.438 78.2012L238.829 71.3189C252.474 49.9306 278.149 46.2044 317.314 59.932C329.858 64.331 341.7 68.6299 343.627 69.4876C346.892 70.9388 346.861 70.5458 343.17 63.7768C340.99 59.7763 339.208 54.1607 339.208 51.2974C339.208 46.8246 339.919 46.4102 344.236 48.3551C356.304 53.7912 369.252 49.1892 400.111 35.306ZM400.111 49.9203C400.111 51.0604 397.548 54.1768 394.416 56.8474C387.711 62.5633 368.461 67.5189 368.461 62.8558C368.461 61.1696 371.461 59.8052 375.317 59.7394C377.881 59.6964 380.601 57.9891 383.659 56.0695C385.1 55.1651 386.617 54.2135 388.227 53.3667C399.328 47.5241 400.111 47.2998 400.111 49.9203ZM330.472 83.5528C343.455 91.8416 366.821 99.7953 372.712 97.9295L377.878 96.2935L375.085 104.089C372.392 111.604 371.977 111.813 363.521 109.839C352.216 107.205 343.42 102.099 309.954 78.7527C301.55 72.8889 320.838 77.4014 330.472 83.5528ZM352.463 132.921C369.516 134.444 370.289 134.777 370.289 140.569C370.289 143.902 369.56 147.277 368.669 148.071C366.201 150.275 340.361 140.054 332.472 133.758C327.55 129.829 326.843 128.652 330.066 129.757C332.58 130.623 342.66 132.045 352.463 132.921ZM375.774 176.775C375.774 179.846 356.811 176.598 350.406 172.428C346.172 169.671 346.962 169.241 358.456 168.051C370.969 166.755 375.774 169.177 375.774 176.775Z" fill="black"/>
<rect width="6.71412" height="110.067" transform="matrix(-0.976266 0.216575 -0.216728 -0.976232 505.902 259.561)" fill="#504A44"/>
<rect width="6.71422" height="110.065" transform="matrix(-0.997491 -0.0707991 0.0708512 -0.997487 469.996 262.359)" fill="#504A44"/>
<rect width="6.71393" height="106.449" transform="matrix(-0.93613 -0.351654 0.351882 -0.936044 437.238 251.182)" fill="#504A44"/>
<rect width="6.71276" height="89.8316" transform="matrix(-0.637504 -0.770447 0.770678 -0.637224 397.848 203.182)" fill="#504A44"/>
<rect width="6.71192" height="85.1665" transform="matrix(-0.258908 -0.965902 0.96595 -0.25873 387.625 168.027)" fill="#504A44"/>
<rect x="385.309" y="141.716" width="6.71175" height="80.348" transform="rotate(-90 385.309 141.716)" fill="#504A44"/>
<rect width="6.7121" height="80.3439" transform="matrix(0.372633 -0.927979 0.928074 0.372396 385.887 105.084)" fill="#504A44"/>
<rect width="6.71273" height="86.2329" transform="matrix(0.627906 -0.778289 0.778516 0.627625 396.242 75.6956)" fill="#504A44"/>
<rect width="6.71347" height="91.9933" transform="matrix(0.831876 -0.554962 0.555246 0.831686 412.504 49.6686)" fill="#504A44"/>
<rect width="6.71407" height="97.5866" transform="matrix(0.96595 -0.25873 0.258908 0.965902 439.535 25.3864)" fill="#504A44"/>
<rect x="469.867" y="18.6902" width="6.71424" height="99.2182" fill="#504A44"/>
<rect width="6.714" height="101.897" transform="matrix(0.950733 0.310012 -0.31022 0.950665 505.008 21.0643)" fill="#504A44"/>
<rect width="6.71339" height="101.906" transform="matrix(0.811478 0.584382 -0.584667 0.811273 534.168 40.4237)" fill="#504A44"/>
<rect width="6.7126" height="99.1368" transform="matrix(0.58468 0.811264 -0.811469 0.584396 554.039 69.4231)" fill="#504A44"/>
<rect width="6.71197" height="101.928" transform="matrix(0.29323 0.956042 -0.956103 0.293032 566.613 101.503)" fill="#504A44"/>
<rect x="568.578" y="132.341" width="6.71175" height="97.294" transform="rotate(90 568.578 132.341)" fill="#504A44"/>
<rect width="6.71192" height="97.2915" transform="matrix(-0.258908 0.965902 -0.96595 -0.25873 569.277 165.012)" fill="#504A44"/>
<rect width="6.71264" height="97.2811" transform="matrix(-0.597441 0.801913 -0.802125 -0.597157 559.555 199.808)" fill="#504A44"/>
<rect width="6.71357" height="97.2677" transform="matrix(-0.854561 0.519351 -0.519631 -0.854391 537.629 233.386)" fill="#504A44"/>
<rect width="6.71343" height="90.5153" transform="matrix(-0.821145 -0.570719 0.571003 -0.820948 414.711 228.683)" fill="#504A44"/>
<ellipse cx="474.584" cy="135.004" rx="17.2792" ry="24.3563" fill="#504A44"/>
<path d="M572.617 139.387C572.617 209.615 530.035 266.546 477.508 266.546C424.98 266.546 382.398 209.615 382.398 139.387C382.398 69.1591 424.98 12.2283 477.508 12.2283C530.035 12.2283 572.617 69.1591 572.617 139.387ZM389.467 139.387C389.467 204.395 428.884 257.095 477.508 257.095C526.131 257.095 565.548 204.395 565.548 139.387C565.548 74.3788 526.131 21.6793 477.508 21.6793C428.884 21.6793 389.467 74.3788 389.467 139.387Z" fill="black"/>
<path d="M568.207 140.118C568.207 210.377 525.918 267.334 473.752 267.334C421.586 267.334 379.297 210.377 379.297 140.118C379.297 69.8586 421.586 12.9021 473.752 12.9021C525.918 12.9021 568.207 69.8586 568.207 140.118ZM386.317 140.118C386.317 205.155 425.463 257.878 473.752 257.878C522.041 257.878 561.186 205.155 561.186 140.118C561.186 75.0805 522.041 22.3574 473.752 22.3574C425.463 22.3574 386.317 75.0805 386.317 140.118Z" fill="#504A44"/>
<g clip-path="url(#clip0_2563_12510)">
<path d="M236.734 96.2225L256.594 162.269L346.376 154.748L349.421 86.7826L236.734 96.2225Z" fill="black"/>
<g clip-path="url(#clip1_2563_12510)">
<path d="M355.636 112.906L354.514 91.6764C356.777 75.5751 352.705 64.6859 344.386 58.7755L344.24 56.0071L332.157 56.6454L332.267 58.7255C332.291 59.1691 332.114 59.5925 331.792 59.8856C324.528 66.6804 321.848 77.7884 325.699 93.1986L326.82 114.428C324.62 129.406 324.394 149.219 334.151 146.357C337.3 147.326 340.194 146.943 342.911 145.526C345.761 146.633 348.679 146.709 351.709 145.429C361.714 147.263 359.402 127.584 355.636 112.906Z" fill="black"/>
<path opacity="0.5" d="M351.693 145.446C349.714 146.302 347.764 146.558 345.85 146.322C346.532 146.163 347.226 145.942 347.931 145.644C357.935 147.463 355.622 127.784 351.856 113.105L350.735 91.8761C352.941 76.1459 349.105 65.3821 341.166 59.3904C340.993 59.2599 340.851 59.0938 340.748 58.9034C340.646 58.713 340.585 58.5027 340.571 58.2869L340.461 56.2068L344.223 56.008L344.333 58.0881C344.356 58.5164 344.592 58.918 344.944 59.1909C352.883 65.1826 356.719 75.9463 354.513 91.6765L355.634 112.906C359.4 127.584 361.713 147.263 351.693 145.446Z" fill="black"/>
<path d="M344.84 55.976L331.564 56.6773C331.491 56.6811 331.419 56.6558 331.365 56.6069C331.311 56.558 331.278 56.4895 331.274 56.4165L331.272 56.3859C331.264 56.233 331.38 56.1041 331.533 56.0961L344.809 55.3947C344.962 55.3867 345.091 55.5026 345.099 55.6555L345.101 55.7014C345.109 55.8391 344.993 55.9679 344.84 55.976Z" fill="black"/>
<path d="M343.899 49.5372L344.21 55.4257L332.127 56.064L331.816 50.1755C331.784 49.5637 332.232 49.0492 332.844 49.0169L342.724 48.4949C343.336 48.4626 343.867 48.9254 343.899 49.5372Z" fill="black"/>
<path d="M333.274 53.4266C333.167 53.4322 333.055 53.3461 333.049 53.2237L332.879 50.0118C332.873 49.9048 332.959 49.7928 333.082 49.7864C333.204 49.7799 333.301 49.8668 333.307 49.9892L333.477 53.2011C333.468 53.3243 333.381 53.4209 333.274 53.4266ZM334.467 53.3635C334.36 53.3692 334.248 53.2831 334.242 53.1607L334.072 49.9488C334.066 49.8417 334.152 49.7298 334.275 49.7234C334.382 49.7177 334.494 49.8038 334.5 49.9262L334.67 53.1381C334.661 53.2613 334.574 53.3579 334.467 53.3635ZM335.645 53.3013C335.522 53.3078 335.426 53.2209 335.419 53.0985L335.25 49.8866C335.244 49.7795 335.33 49.6676 335.452 49.6611C335.559 49.6555 335.656 49.7424 335.663 49.8648L335.832 53.0767C335.854 53.1983 335.767 53.2949 335.645 53.3013ZM336.838 53.2383C336.731 53.244 336.619 53.1579 336.612 53.0355L336.443 49.8236C336.437 49.7165 336.523 49.6046 336.645 49.5981C336.768 49.5917 336.864 49.6786 336.871 49.8009L337.04 53.0129C337.032 53.136 336.945 53.2327 336.838 53.2383ZM338.031 53.1753C337.908 53.1818 337.812 53.0948 337.805 52.9725L337.636 49.7605C337.63 49.6535 337.716 49.5416 337.838 49.5351C337.945 49.5295 338.042 49.6164 338.049 49.7387L338.218 52.9507C338.225 53.073 338.138 53.1696 338.031 53.1753ZM339.208 53.1131C339.101 53.1187 339.005 53.0318 338.998 52.9095L338.829 49.6975C338.823 49.5905 338.909 49.4785 339.016 49.4729C339.138 49.4664 339.235 49.5534 339.242 49.6757L339.411 52.8876C339.418 53.01 339.331 53.1066 339.208 53.1131ZM340.401 53.0501C340.294 53.0557 340.182 52.9696 340.176 52.8472L340.006 49.6353C340.001 49.5282 340.087 49.4163 340.209 49.4099C340.316 49.4042 340.428 49.4903 340.435 49.6127L340.604 52.8246C340.611 52.947 340.508 53.0444 340.401 53.0501ZM341.594 52.987C341.487 52.9927 341.375 52.9066 341.369 52.7842L341.199 49.5723C341.194 49.4652 341.28 49.3533 341.402 49.3469C341.509 49.3412 341.621 49.4273 341.628 49.5497L341.797 52.7616C341.788 52.8848 341.701 52.9814 341.594 52.987ZM342.772 52.9248C342.665 52.9305 342.568 52.8436 342.562 52.7212L342.392 49.5093C342.387 49.4022 342.473 49.2903 342.58 49.2846C342.702 49.2782 342.799 49.3651 342.805 49.4875L342.975 52.6994C342.981 52.8217 342.894 52.9184 342.772 52.9248ZM332.023 54.1368L344.106 53.4985L344.128 53.9115L332.045 54.5498L332.023 54.1368Z" fill="black"/>
<path d="M325.699 93.1984L354.515 91.6762L355.636 112.905L326.821 114.428L325.699 93.1984Z" fill="black"/>
<path opacity="0.5" d="M333.562 112.829L332.634 95.2706C329.892 86.9184 330.149 77.2575 331.832 66.7237C327.542 76.1069 326.936 85.8322 330.031 95.9296L330.904 112.448C328.89 122.815 330.502 132.423 335.771 141.302C332.988 131.004 331.7 121.424 333.562 112.829Z" fill="black"/>
</g>
<path d="M280.95 139.034L279.81 125.099C279.718 123.761 279.179 122.493 278.28 121.497C279.005 120.369 279.331 119.03 279.204 117.695L276.508 84.7536C276.237 81.5123 275.247 78.3722 273.61 75.5621C272.416 73.463 270.89 71.5711 269.091 69.96C267.788 68.7469 267 67.0811 266.888 65.3048L267.961 65.2169C268.037 66.1349 268.314 67.0249 268.773 67.8232C269.232 68.6216 269.862 69.3086 270.618 69.835C272.762 71.3451 274.629 73.2123 276.14 75.355C278.091 78.0375 279.278 81.1989 279.575 84.5026L282.271 117.444C282.385 118.832 281.942 120.209 281.04 121.271C282.103 122.173 282.763 123.46 282.877 124.848L284.017 138.783C284.19 140.899 282.043 142.804 279.219 143.035C278.839 143.066 278.457 143.065 278.077 143.032C278.941 142.795 279.698 142.269 280.221 141.541C280.744 140.814 281.001 139.929 280.95 139.034Z" fill="black"/>
<path d="M277.112 139.347L275.972 125.413C275.892 124.126 275.498 122.879 274.825 121.78C275.31 120.585 275.496 119.291 275.366 118.008L272.67 85.0672C272.416 81.8871 271.663 78.7668 270.438 75.8213C269.611 73.7827 268.516 71.8639 267.181 70.1159C266.202 68.7348 265.634 67.1049 265.542 65.4145L266.884 65.3046C266.997 67.0809 267.785 68.7468 269.087 69.9599C270.886 71.571 272.412 73.4628 273.606 75.562C275.244 78.3721 276.234 81.5122 276.504 84.7535L279.2 117.695C279.327 119.03 279.002 120.369 278.276 121.497C279.175 122.492 279.714 123.761 279.806 125.099L280.946 139.034C280.998 139.928 280.741 140.814 280.218 141.541C279.695 142.269 278.937 142.795 278.073 143.031C277.424 142.978 276.788 142.82 276.19 142.563C276.909 141.655 277.241 140.499 277.112 139.347Z" fill="black"/>
<path d="M251.966 86.7616C251.706 83.5195 252.172 80.2602 253.331 77.2212C254.168 74.9559 255.366 72.8411 256.879 70.959C257.967 69.5503 258.474 67.7784 258.296 66.0075L259.638 65.8977C259.822 67.5805 259.527 69.2811 258.785 70.803C257.752 72.7448 256.983 74.8162 256.5 76.9619C255.77 80.0675 255.533 83.2688 255.8 86.4479L258.496 119.389C258.576 120.675 258.97 121.923 259.642 123.022C259.157 124.216 258.972 125.511 259.102 126.793L260.242 140.728C260.302 141.885 260.817 142.972 261.675 143.751C261.126 144.101 260.524 144.361 259.893 144.519C259.002 144.426 258.169 144.031 257.535 143.398C256.9 142.765 256.503 141.933 256.408 141.042L255.268 127.107C255.141 125.772 255.466 124.433 256.191 123.305C255.292 122.309 254.753 121.041 254.662 119.703L251.966 86.7616Z" fill="black"/>
<path d="M248.891 86.8486L279.563 84.3385L282.074 115.011L251.401 117.522L248.891 86.8486Z" fill="black"/>
<path d="M276.509 84.7536L276.492 84.5898L279.559 84.3388L279.576 84.5026L282.073 115.011L279.005 115.262L276.509 84.7536Z" fill="black"/>
<path d="M276.493 84.5896L276.509 84.7534L279.006 115.262L275.172 115.576L272.675 85.0672L272.66 84.9032L276.493 84.5896Z" fill="black"/>
<path d="M255.805 86.4479L258.301 116.957L254.467 117.27L251.97 86.7617L251.96 86.5973L255.794 86.2836L255.805 86.4479Z" fill="black"/>
<path d="M257.226 66.0953L267.961 65.2168C268.165 65.2001 268.353 65.1034 268.485 64.9478C268.617 64.7922 268.682 64.5906 268.665 64.3872L268.352 60.5531C268.318 60.1463 268.125 59.7695 267.814 59.5054C267.503 59.2413 267.099 59.1117 266.693 59.145L257.491 59.898C257.084 59.9313 256.707 60.1248 256.443 60.4359C256.179 60.7471 256.049 61.1504 256.083 61.5571L256.396 65.3912C256.413 65.5946 256.51 65.7831 256.665 65.9151C256.821 66.0471 257.023 66.112 257.226 66.0953Z" fill="black"/>
<path d="M265.363 59.2537L266.691 59.145C267.098 59.1117 267.501 59.2413 267.813 59.5054C268.124 59.7695 268.317 60.1464 268.351 60.5531L268.664 64.3872C268.681 64.5906 268.616 64.7922 268.484 64.9478C268.352 65.1034 268.164 65.2002 267.96 65.2168L267.193 65.2795L266.8 60.4731C266.771 60.1209 266.604 59.7945 266.334 59.5658C266.065 59.3371 265.716 59.2248 265.363 59.2537Z" fill="black"/>
<path d="M264.074 59.3593L265.364 59.2537C265.716 59.2249 266.066 59.3372 266.335 59.5658C266.604 59.7945 266.772 60.1209 266.801 60.4731L267.194 65.2796L265.661 65.4051L265.247 60.3548C265.224 60.0672 265.087 59.8008 264.867 59.6141C264.647 59.4274 264.362 59.3357 264.074 59.3593Z" fill="black"/>
<path d="M258.82 59.7894L260.11 59.6839C259.823 59.7074 259.556 59.8442 259.369 60.0642C259.183 60.2842 259.091 60.5693 259.115 60.8569L259.528 65.9072L257.994 66.0327L257.601 61.2263C257.572 60.874 257.684 60.5248 257.913 60.2553C258.142 59.9858 258.468 59.8183 258.82 59.7894Z" fill="black"/>
<path d="M268.602 66.3997L256.793 67.3661C256.454 67.3938 256.202 67.691 256.23 68.0298C256.258 68.3686 256.555 68.6208 256.894 68.593L268.703 67.6266C269.041 67.5989 269.294 67.3018 269.266 66.963C269.238 66.6242 268.941 66.372 268.602 66.3997Z" fill="black"/>
<path d="M283.14 75.6873L281.873 75.8087L281.314 69.9747L273.18 70.7544L273.74 76.5884L272.472 76.7099C268.695 77.072 265.927 80.4293 266.289 84.2086L266.41 85.4702C266.534 86.7616 267.681 87.7081 268.971 87.5844L288.643 85.6986C289.934 85.5749 290.88 84.4278 290.756 83.1364L290.635 81.8747C290.273 78.0955 286.917 75.3252 283.14 75.6873Z" fill="black"/>
<path d="M283.138 75.6874L281.871 75.8089L281.312 69.9748L276.648 70.4219L277.208 76.2559L278.475 76.1345C282.252 75.7724 285.608 78.5427 285.97 82.3219L286.091 83.5836C286.215 84.875 285.269 86.0221 283.978 86.1458L288.641 85.6988C289.932 85.5751 290.878 84.428 290.754 83.1366L290.633 81.8749C290.271 78.0956 286.915 75.3253 283.138 75.6874Z" fill="black"/>
<path d="M289.827 98.1505L270.179 100.034C268.882 100.158 267.729 99.2076 267.605 97.9105L266.861 90.1461C266.737 88.8552 267.683 87.7083 268.974 87.5845L288.645 85.6988C289.936 85.5751 291.083 86.5213 291.206 87.8122L291.951 95.5767C292.075 96.8739 291.124 98.0262 289.827 98.1505Z" fill="black"/>
<path d="M292.941 105.033C292.816 103.728 291.689 102.77 290.424 102.891C291.689 102.77 292.613 101.614 292.488 100.31C292.363 99.0058 291.236 98.0468 289.971 98.1681L270.088 100.074C268.822 100.195 267.898 101.351 268.023 102.655C268.148 103.959 269.275 104.918 270.54 104.797C269.275 104.918 268.351 106.074 268.476 107.378C268.601 108.682 269.728 109.641 270.993 109.52C270.993 109.52 268.74 109.768 269.02 112.689L269.531 118.025C269.893 121.805 273.249 124.575 277.026 124.213L287.694 123.19C291.471 122.828 294.239 119.471 293.877 115.692L293.365 110.355C293.089 107.473 290.876 107.614 290.876 107.614C292.142 107.492 293.066 106.337 292.941 105.033Z" fill="black"/>
<path d="M292.942 105.033C292.817 103.728 291.69 102.77 290.425 102.891C291.69 102.77 292.615 101.614 292.49 100.31C292.365 99.0056 291.238 98.0467 289.972 98.168L285.309 98.615C286.574 98.4938 287.701 99.4526 287.826 100.757C287.951 102.061 287.027 103.217 285.762 103.338C287.027 103.217 288.154 104.175 288.279 105.48C288.404 106.784 287.48 107.939 286.215 108.061C286.215 108.061 288.427 107.92 288.703 110.802L289.215 116.138C289.577 119.918 286.809 123.275 283.032 123.637L287.695 123.19C291.472 122.828 294.241 119.471 293.878 115.691L293.367 110.355C293.09 107.473 290.878 107.614 290.878 107.614C292.143 107.492 293.067 106.337 292.942 105.033Z" fill="black"/>
<path d="M282.977 71.6327L271.864 72.698C271.709 72.7128 271.556 72.6657 271.436 72.5671C271.317 72.4685 271.241 72.3264 271.226 72.1722L270.85 68.2451C270.749 67.1973 271.517 66.2666 272.565 66.1662L281.047 65.353C282.095 65.2526 283.026 66.0205 283.126 67.0682L283.503 70.9952C283.51 71.0716 283.502 71.1487 283.48 71.2221C283.457 71.2955 283.421 71.3637 283.372 71.4229C283.323 71.4821 283.263 71.5311 283.195 71.5671C283.127 71.6031 283.053 71.6254 282.977 71.6327Z" fill="black"/>
<g clip-path="url(#clip2_2563_12510)">
<path d="M320.982 76.4521C319.881 75.7038 318.962 74.7189 318.29 73.5695L297.54 74.9793C297.031 76.2089 296.253 77.3091 295.264 78.1995C294.256 79.1061 293.468 80.2298 292.959 81.4857C292.45 82.7416 292.233 84.0969 292.325 85.4489L295.264 142.163C295.422 144.49 297.437 146.249 299.765 146.091L323.884 144.452C326.212 144.294 327.971 142.279 327.812 139.951L324.874 83.2374C324.782 81.8854 324.384 80.5719 323.71 79.3964C323.035 78.2208 322.103 77.214 320.982 76.4521Z" fill="black"/>
<g opacity="0.3">
<path d="M320.987 76.4519C319.887 75.7035 318.967 74.7186 318.296 73.5692L297.546 74.9791C297.036 76.2087 296.259 77.3089 295.269 78.1993C295.124 78.3306 294.983 78.4665 294.846 78.607L321.462 76.7986C321.308 76.6779 321.149 76.5622 320.987 76.4519Z" fill="black"/>
</g>
<path d="M315.824 64.16L298.42 65.5896C297.125 65.6776 296.003 64.699 295.915 63.4039L295.715 60.4558C295.627 59.1607 296.606 58.0394 297.901 57.9514L315.305 56.5218C316.6 56.4338 317.721 57.4124 317.809 58.7076L318.01 61.6555C318.098 62.9507 317.119 64.072 315.824 64.16Z" fill="black"/>
<path opacity="0.1" d="M315.85 56.4723L312.484 56.701C313.365 56.6412 314.15 57.6426 314.238 58.9377L314.438 61.8857C314.526 63.1808 313.884 64.2792 313.003 64.3391L316.369 64.1103C317.25 64.0505 317.892 62.9521 317.804 61.657L317.604 58.709C317.516 57.4139 316.731 56.4125 315.85 56.4723Z" fill="black"/>
<path d="M321.114 112.144L299.957 113.582C299.105 113.64 298.368 112.996 298.31 112.144L296.73 88.8898C296.672 88.0379 297.316 87.3003 298.168 87.2424L319.324 85.8049C320.176 85.747 320.914 86.3907 320.972 87.2427L322.552 110.497C322.61 111.349 321.966 112.086 321.114 112.144Z" fill="black"/>
<path d="M310.491 80.9518C312.157 79.0425 314.863 78.46 316.515 78.2846C317.329 78.1983 318.041 78.82 318.066 79.6377C318.116 81.2985 317.904 84.0581 316.238 85.9674C314.572 87.8767 311.866 88.4592 310.214 88.6346C309.4 88.7208 308.688 88.0992 308.663 87.2815C308.614 85.6207 308.825 82.8611 310.491 80.9518Z" fill="black"/>
<path opacity="0.1" d="M311.848 86.2328C311.721 86.2416 311.594 86.2253 311.474 86.1848C311.354 86.1443 311.243 86.0805 311.148 85.9969C310.955 85.8286 310.837 85.5905 310.819 85.335C310.802 85.0796 310.887 84.8277 311.055 84.6348L314.214 81.0151C314.383 80.8222 314.621 80.7041 314.876 80.6867C315.132 80.6694 315.383 80.7542 315.576 80.9226C315.769 81.0909 315.887 81.329 315.905 81.5845C315.922 81.8399 315.837 82.0918 315.669 82.2847L312.51 85.9044C312.426 86 312.325 86.0783 312.212 86.1347C312.098 86.191 311.974 86.2244 311.848 86.2328Z" fill="black"/>
<path d="M308.79 87.3707L308.781 87.3713C308.525 87.3863 308.274 87.2992 308.083 87.1291C307.892 86.959 307.776 86.7199 307.76 86.4643C307.602 83.768 306.486 82.2099 304.444 81.8335C304.319 81.8111 304.2 81.7642 304.093 81.6954C303.986 81.6266 303.893 81.5374 303.821 81.4328C303.748 81.3282 303.697 81.2104 303.671 81.086C303.644 80.9617 303.642 80.8333 303.665 80.7082C303.688 80.5831 303.736 80.4638 303.805 80.3572C303.874 80.2505 303.964 80.1586 304.069 80.0867C304.174 80.0148 304.292 79.9644 304.417 79.9383C304.541 79.9122 304.669 79.9109 304.794 79.9346C306.499 80.2488 309.402 81.5004 309.688 86.3509C309.703 86.6049 309.617 86.8546 309.449 87.0456C309.281 87.2366 309.044 87.3534 308.79 87.3707Z" fill="black"/>
<path d="M310.481 84.7049C309.333 85.2501 308.022 85.3392 306.811 84.9543C304.263 84.1443 301.524 85.4465 300.544 87.9336C300.009 89.289 299.836 90.7599 300.041 92.2023C300.246 93.6447 300.822 95.0092 301.712 96.1623L304.394 99.6351C304.707 100.041 305.116 100.363 305.584 100.574C306.051 100.784 306.564 100.876 307.075 100.841C307.486 100.813 307.877 100.655 308.192 100.389C308.606 100.039 309.122 99.831 309.663 99.7943C310.204 99.7575 310.742 99.8943 311.2 100.185C311.548 100.405 311.957 100.509 312.368 100.481C312.88 100.447 313.375 100.286 313.81 100.015C314.245 99.7431 314.606 99.3684 314.861 98.9239L317.049 95.1202C317.775 93.8573 318.161 92.4274 318.169 90.9706C318.177 89.5137 317.806 88.0797 317.094 86.8091C315.786 84.4775 312.895 83.5578 310.481 84.7049Z" fill="black"/>
<path opacity="0.1" d="M317.094 86.809C316.807 86.2978 316.434 85.8402 315.992 85.4564C316.008 85.4843 316.025 85.5114 316.041 85.5397C316.754 86.8104 317.124 88.2443 317.116 89.7012C317.109 91.1581 316.723 92.588 315.996 93.8509L313.809 97.6546C313.553 98.0991 313.192 98.4737 312.757 98.7454C312.322 99.017 311.827 99.1773 311.315 99.2121C310.904 99.24 310.495 99.136 310.147 98.9154C309.689 98.625 309.151 98.4882 308.61 98.5249C308.069 98.5617 307.554 98.7701 307.139 99.1198C306.824 99.3855 306.433 99.5438 306.022 99.5717C305.611 99.5996 305.198 99.5457 304.808 99.4132C304.418 99.2807 304.058 99.0722 303.749 98.7998L304.394 99.6351C304.707 100.041 305.116 100.363 305.583 100.574C306.051 100.784 306.563 100.876 307.075 100.841C307.486 100.813 307.877 100.655 308.192 100.389C308.606 100.039 309.121 99.831 309.662 99.7943C310.203 99.7575 310.742 99.8943 311.2 100.185C311.548 100.405 311.957 100.509 312.368 100.481C312.879 100.447 313.374 100.286 313.809 100.015C314.244 99.7431 314.605 99.3684 314.861 98.9239L317.049 95.1202C317.775 93.8574 318.161 92.4275 318.169 90.9706C318.177 89.5137 317.806 88.0797 317.094 86.809Z" fill="black"/>
<path d="M315.052 106.043L305.149 106.716C304.893 106.733 304.641 106.649 304.449 106.48C304.256 106.312 304.137 106.074 304.12 105.818C304.103 105.563 304.188 105.311 304.356 105.118C304.524 104.925 304.762 104.807 305.018 104.79L314.921 104.117C315.177 104.099 315.429 104.184 315.622 104.353C315.815 104.521 315.933 104.759 315.95 105.015C315.967 105.27 315.883 105.522 315.714 105.715C315.546 105.908 315.308 106.026 315.052 106.043Z" fill="black"/>
<path d="M313.002 110.068L307.723 110.427C307.468 110.444 307.216 110.359 307.023 110.191C306.83 110.022 306.712 109.784 306.694 109.529C306.677 109.273 306.762 109.021 306.93 108.829C307.099 108.636 307.337 108.518 307.592 108.5L312.872 108.141C313.127 108.124 313.379 108.209 313.572 108.377C313.765 108.546 313.883 108.784 313.9 109.039C313.918 109.295 313.833 109.547 313.664 109.74C313.496 109.932 313.258 110.051 313.002 110.068Z" fill="black"/>
<path opacity="0.1" d="M320.564 76.4805C319.463 75.7173 318.547 74.7094 317.883 73.5331C317.22 72.3568 316.828 71.0429 316.736 69.6909L316.357 64.1115L297.871 65.3675L298.181 69.9306L311.809 69.0047L311.878 70.021C311.97 71.373 312.362 72.6869 313.025 73.8632C313.688 75.0395 314.605 76.0474 315.706 76.8106C316.806 77.5739 317.723 78.5818 318.386 79.7581C319.049 80.9344 319.441 82.2482 319.533 83.6003L321.863 117.891C322.021 120.219 320.298 122.232 318.014 122.387L322.873 122.057C325.157 121.902 326.88 119.889 326.722 117.561L324.392 83.2702C324.3 81.9181 323.907 80.6043 323.244 79.428C322.581 78.2517 321.665 77.2438 320.564 76.4805Z" fill="black"/>
<path opacity="0.1" d="M294.621 119.15L294.661 119.74C294.819 122.068 296.835 123.827 299.162 123.668L323.281 122.03C325.609 121.871 327.368 119.856 327.21 117.528L327.17 116.938L294.621 119.15Z" fill="black"/>
</g>
<g clip-path="url(#clip3_2563_12510)">
<path d="M297.468 69.3221L297.089 63.7427L278.202 65.026L278.581 70.6054C278.673 71.9575 278.456 73.3127 277.947 74.5687C277.438 75.8246 276.65 76.9483 275.642 77.8548C274.635 78.7613 273.847 79.885 273.338 81.141C272.829 82.3969 272.612 83.7522 272.704 85.1042L275.034 119.395C275.192 121.723 277.207 123.482 279.535 123.323L303.654 121.685C305.981 121.527 307.74 119.511 307.582 117.183L305.252 82.8927C305.16 81.5406 304.762 80.2272 304.088 79.0516C303.414 77.8761 302.481 76.8693 301.36 76.1074C300.24 75.3454 299.307 74.3386 298.633 73.1631C297.958 71.9876 297.56 70.6741 297.468 69.3221Z" fill="black"/>
<path d="M301.357 76.1074C300.256 75.359 299.337 74.3741 298.665 73.2247L277.915 74.6346C277.406 75.8642 276.628 76.9644 275.639 77.8548C274.631 78.7613 273.843 79.885 273.334 81.141C272.825 82.3969 272.608 83.7521 272.7 85.1042L275.639 141.818C275.797 144.146 277.812 145.905 280.14 145.746L304.259 144.108C306.587 143.95 308.346 141.934 308.187 139.606L305.249 82.8927C305.157 81.5406 304.759 80.2272 304.085 79.0516C303.41 77.8761 302.478 76.8693 301.357 76.1074Z" fill="black"/>
<g opacity="0.3">
<path d="M301.358 76.1073C300.258 75.3589 299.338 74.374 298.667 73.2246L277.917 74.6345C277.407 75.8641 276.63 76.9643 275.64 77.8547C275.495 77.986 275.354 78.1219 275.217 78.2624L301.833 76.454C301.679 76.3333 301.52 76.2176 301.358 76.1073Z" fill="black"/>
</g>
<path d="M296.199 63.8154L278.795 65.245C277.5 65.333 276.378 64.3543 276.29 63.0592L276.09 60.1112C276.002 58.816 276.981 57.6948 278.276 57.6068L295.68 56.1772C296.975 56.0892 298.096 57.0678 298.184 58.3629L298.385 61.3108C298.473 62.6061 297.494 63.7274 296.199 63.8154Z" fill="black"/>
<path opacity="0.1" d="M296.225 56.1276L292.859 56.3563C293.74 56.2964 294.525 57.2979 294.613 58.593L294.813 61.541C294.901 62.8361 294.259 63.9345 293.378 63.9943L296.744 63.7656C297.625 63.7058 298.267 62.6074 298.179 61.3122L297.979 58.3643C297.891 57.0692 297.106 56.0677 296.225 56.1276Z" fill="black"/>
<path d="M301.489 111.8L280.332 113.237C279.48 113.295 278.743 112.651 278.685 111.799L277.105 88.5452C277.047 87.6933 277.691 86.9556 278.543 86.8978L299.699 85.4603C300.551 85.4024 301.289 86.046 301.347 86.8981L302.927 110.152C302.985 111.004 302.341 111.742 301.489 111.8Z" fill="black"/>
<path d="M290.866 80.6071C292.532 78.6978 295.238 78.1153 296.89 77.9399C297.704 77.8535 298.416 78.4753 298.441 79.293C298.491 80.9538 298.279 83.7134 296.613 85.6227C294.947 87.5319 292.241 88.1145 290.589 88.2898C289.775 88.3761 289.063 87.7544 289.038 86.9368C288.989 85.276 289.2 82.5163 290.866 80.6071Z" fill="black"/>
<path opacity="0.1" d="M292.223 85.8881C292.096 85.8969 291.969 85.8805 291.849 85.8401C291.729 85.7996 291.618 85.7357 291.523 85.6522C291.33 85.4838 291.212 85.2457 291.194 84.9903C291.177 84.7348 291.262 84.483 291.43 84.29L294.589 80.6704C294.758 80.4775 294.996 80.3594 295.251 80.342C295.507 80.3247 295.758 80.4095 295.951 80.5778C296.144 80.7462 296.262 80.9843 296.28 81.2397C296.297 81.4952 296.212 81.7471 296.044 81.94L292.885 85.5597C292.801 85.6553 292.7 85.7336 292.587 85.79C292.473 85.8463 292.349 85.8797 292.223 85.8881Z" fill="black"/>
<path d="M289.165 87.0259L289.156 87.0265C288.9 87.0416 288.649 86.9545 288.458 86.7844C288.267 86.6143 288.151 86.3752 288.135 86.1195C287.977 83.4232 286.861 81.8652 284.819 81.4888C284.694 81.4664 284.575 81.4194 284.468 81.3507C284.361 81.2819 284.268 81.1926 284.196 81.0881C284.123 80.9835 284.072 80.8657 284.046 80.7413C284.019 80.617 284.017 80.4885 284.04 80.3635C284.063 80.2384 284.111 80.1191 284.18 80.0124C284.249 79.9058 284.339 79.8139 284.444 79.742C284.549 79.6701 284.667 79.6197 284.792 79.5936C284.916 79.5675 285.044 79.5662 285.169 79.5899C286.874 79.9041 289.777 81.1557 290.063 86.0061C290.078 86.2602 289.992 86.5099 289.824 86.7008C289.656 86.8918 289.419 87.0087 289.165 87.0259Z" fill="black"/>
<path d="M290.856 84.3602C289.708 84.9054 288.397 84.9945 287.186 84.6096C284.638 83.7996 281.899 85.1018 280.919 87.5888C280.384 88.9442 280.211 90.4151 280.416 91.8576C280.621 93.3 281.197 94.6645 282.087 95.8176L284.769 99.2904C285.082 99.6962 285.491 100.019 285.959 100.229C286.426 100.439 286.939 100.531 287.45 100.496C287.861 100.468 288.252 100.31 288.567 100.044C288.981 99.6947 289.497 99.4863 290.038 99.4496C290.579 99.4128 291.117 99.5496 291.575 99.8401C291.923 100.061 292.332 100.165 292.743 100.137C293.255 100.102 293.75 99.9416 294.185 99.67C294.62 99.3983 294.981 99.0237 295.236 98.5792L297.424 94.7755C298.15 93.5126 298.536 92.0827 298.544 90.6258C298.552 89.169 298.181 87.735 297.469 86.4643C296.161 84.1328 293.27 83.2131 290.856 84.3602Z" fill="black"/>
<path opacity="0.1" d="M297.469 86.4643C297.182 85.9531 296.809 85.4954 296.367 85.1116C296.383 85.1396 296.4 85.1666 296.416 85.195C297.129 86.4657 297.499 87.8996 297.491 89.3565C297.484 90.8134 297.098 92.2432 296.371 93.5062L294.184 97.3099C293.928 97.7544 293.567 98.129 293.132 98.4006C292.697 98.6723 292.202 98.8326 291.69 98.8673C291.279 98.8953 290.87 98.7913 290.522 98.5707C290.064 98.2802 289.526 98.1434 288.985 98.1802C288.444 98.217 287.929 98.4254 287.514 98.7751C287.199 99.0407 286.808 99.199 286.397 99.227C285.986 99.2549 285.573 99.201 285.183 99.0685C284.793 98.936 284.433 98.7275 284.124 98.455L284.769 99.2904C285.082 99.6962 285.491 100.019 285.958 100.229C286.426 100.439 286.938 100.531 287.45 100.496C287.861 100.468 288.252 100.31 288.567 100.044C288.981 99.6947 289.496 99.4863 290.037 99.4495C290.578 99.4128 291.117 99.5496 291.575 99.84C291.923 100.061 292.332 100.165 292.743 100.137C293.254 100.102 293.749 99.9416 294.184 99.67C294.619 99.3983 294.98 99.0237 295.236 98.5792L297.424 94.7755C298.15 93.5126 298.536 92.0827 298.544 90.6258C298.552 89.1689 298.181 87.735 297.469 86.4643Z" fill="black"/>
<path d="M295.427 105.698L285.524 106.371C285.268 106.389 285.016 106.304 284.824 106.135C284.631 105.967 284.512 105.729 284.495 105.474C284.478 105.218 284.563 104.966 284.731 104.773C284.899 104.58 285.137 104.462 285.393 104.445L295.296 103.772C295.552 103.755 295.804 103.839 295.997 104.008C296.19 104.176 296.308 104.414 296.325 104.67C296.342 104.925 296.258 105.177 296.089 105.37C295.921 105.563 295.683 105.681 295.427 105.698Z" fill="black"/>
<path d="M293.377 109.723L288.098 110.082C287.843 110.099 287.591 110.015 287.398 109.846C287.205 109.678 287.087 109.44 287.069 109.184C287.052 108.929 287.137 108.677 287.305 108.484C287.474 108.291 287.712 108.173 287.967 108.155L293.247 107.797C293.502 107.779 293.754 107.864 293.947 108.033C294.14 108.201 294.258 108.439 294.275 108.695C294.293 108.95 294.208 109.202 294.039 109.395C293.871 109.588 293.633 109.706 293.377 109.723Z" fill="black"/>
<path opacity="0.1" d="M301.358 76.1073C300.237 75.3454 299.305 74.3386 298.63 73.1631C297.956 71.9876 297.558 70.6741 297.466 69.322L297.087 63.7426L278.246 65.0228L278.556 69.5859L292.445 68.6422L292.515 69.6585C292.606 71.0105 293.005 72.324 293.679 73.4995C294.353 74.6751 295.286 75.6819 296.407 76.4438C297.527 77.2057 298.46 78.2125 299.134 79.388C299.809 80.5635 300.207 81.877 300.299 83.2291L302.629 117.52C302.787 119.848 301.028 121.863 298.7 122.021L303.652 121.685C305.98 121.526 307.738 119.511 307.58 117.183L305.25 82.8926C305.159 81.5406 304.76 80.2271 304.086 79.0516C303.412 77.876 302.479 76.8693 301.358 76.1073Z" fill="black"/>
<path opacity="0.1" d="M274.992 118.805L275.032 119.395C275.19 121.723 277.206 123.482 279.534 123.324L303.652 121.685C305.98 121.527 307.739 119.511 307.581 117.184L307.541 116.593L274.992 118.805Z" fill="black"/>
</g>
<path fill-rule="evenodd" clip-rule="evenodd" d="M256.6 162.263L236.739 96.2241L349.422 86.7883L346.38 154.745L256.6 162.263ZM274.317 104.335L251.785 106.214L256.404 122.768L275.768 121.153L274.317 104.335ZM276.736 132.365L259.484 133.804L264.104 150.357L278.187 149.183L276.736 132.365ZM302.482 101.987L285.583 103.396L287.034 120.214L303.934 118.805L302.482 101.987ZM304.901 130.017L288.002 131.426L289.453 148.244L306.352 146.834L304.901 130.017ZM333.419 127.639L316.167 129.077L317.618 145.895L331.701 144.721L333.419 127.639ZM334.564 116.251L336.281 99.1685L313.749 101.047L315.2 117.865L334.564 116.251Z" fill="#504A44"/>
<path fill-rule="evenodd" clip-rule="evenodd" d="M386.057 83.6976L377.748 152.072L341.139 155.138L349.447 86.7641L386.057 83.6976ZM371.329 113.131L373.405 96.0396L362.145 96.983L360.068 114.074L371.329 113.131ZM367.871 141.616L369.947 124.525L358.687 125.468L356.61 142.559L367.871 141.616Z" fill="black"/>
<path d="M345.68 75.8046L387.945 72.2613C389.44 72.136 390.924 72.6066 392.071 73.5696C393.218 74.5326 393.934 75.9092 394.062 77.3964C394.19 78.8836 393.718 80.3597 392.752 81.4999C391.785 82.6401 390.403 83.3511 388.908 83.4764L346.642 87.0198L345.68 75.8046Z" fill="black"/>
<path d="M348.494 75.586L235.777 85.0489C232.664 85.3103 230.356 88.0364 230.622 91.1379C230.888 94.2395 233.627 96.542 236.739 96.2807L349.457 86.8177C352.569 86.5564 354.877 83.8303 354.611 80.7287C354.345 77.6272 351.607 75.3247 348.494 75.586Z" fill="black"/>
</g>
<path d="M358.672 84.8748L379.76 147.308L490.224 140.773L497.317 76.6723L358.672 84.8748Z" fill="black"/>
<g clip-path="url(#clip4_2563_12510)">
<path d="M400.822 65.2116C400.362 65.1843 399.991 64.8307 399.936 64.3767L399.746 62.8038L379.784 65.2125L380.01 67.0889C380.057 67.4802 379.855 67.857 379.506 68.0442C375.252 70.3254 372.612 75.0265 373.222 80.0826L379.078 128.573C379.556 132.531 383.171 135.35 387.152 134.869L430.405 129.65C434.386 129.17 437.226 125.572 436.748 121.614L433.654 95.9966C431.592 78.9153 417.502 66.2023 400.822 65.2116ZM425.361 93.5664C425.649 95.9502 423.938 98.1172 421.54 98.4065L421.368 98.4273C419.45 98.6587 417.617 97.6083 416.838 95.8517C414.63 90.8663 410.656 86.9033 405.79 84.6413C404.165 83.8862 403.069 82.3272 402.855 80.5566C402.4 76.7943 405.991 73.8107 409.636 74.9168C417.866 77.4145 424.271 84.538 425.361 93.5664Z" fill="black"/>
<path d="M400.823 65.2112C400.364 65.1839 399.992 64.8303 399.937 64.3763L399.747 62.8034L391.945 63.7448L392.253 66.29C392.504 68.3682 394.133 70.011 396.218 70.2991C400.876 70.9422 405.281 72.5025 409.218 74.8091C409.357 74.8398 409.497 74.8741 409.637 74.9166C417.867 77.4145 424.272 84.538 425.362 93.5662C425.434 94.1569 425.383 94.7562 425.211 95.3266C425.727 97.1238 426.099 98.9591 426.322 100.815L429.416 126.433C429.555 127.577 429.415 128.739 429.008 129.819L430.406 129.65C434.387 129.17 437.227 125.572 436.749 121.614L433.656 95.9962C431.593 78.915 417.503 66.2019 400.823 65.2112Z" fill="black"/>
<path d="M415.261 113.059L415.09 111.644C414.251 104.699 410.934 98.2827 405.748 93.5776C400.612 88.9176 393.982 86.2107 387.08 85.9552C384.683 85.8666 382.773 87.9291 383.059 90.2959L386.23 116.562L415.261 113.059Z" fill="black"/>
<path d="M399.847 94.2908C405.032 98.9956 408.35 105.412 409.188 112.357L409.359 113.772L415.268 113.06L415.097 111.645C414.258 104.699 410.941 98.2828 405.755 93.5778C400.619 88.9178 393.989 86.2108 387.087 85.9554C386.07 85.9155 385.077 86.2752 384.324 86.9567C390.075 87.7986 395.497 90.3438 399.847 94.2908Z" fill="black"/>
<path d="M386.942 122.437C387.199 124.562 389.14 126.076 391.278 125.818L412.567 123.249C414.705 122.991 416.23 121.059 415.973 118.934L415.242 112.876L386.211 116.379L386.942 122.437Z" fill="black"/>
<path d="M415.972 118.934L415.241 112.876L409.332 113.589L410.063 119.647C410.32 121.772 408.795 123.704 406.657 123.962L412.566 123.249C414.704 122.991 416.229 121.059 415.972 118.934Z" fill="black"/>
<path d="M426.036 121.624C428.19 121.364 429.727 119.417 429.468 117.276C429.21 115.134 427.254 113.609 425.1 113.869C422.946 114.129 421.409 116.076 421.667 118.217C421.926 120.358 423.882 121.884 426.036 121.624Z" fill="black"/>
<path d="M425.102 113.869C424.411 113.952 423.784 114.211 423.259 114.593C424.53 115.112 425.49 116.281 425.665 117.735C425.841 119.189 425.187 120.551 424.076 121.359C424.696 121.613 425.372 121.704 426.038 121.624C428.193 121.364 429.729 119.417 429.471 117.275C429.212 115.134 427.256 113.609 425.102 113.869Z" fill="black"/>
<path d="M380.031 55.3049L397.155 53.2386C397.225 53.2301 397.295 53.2269 397.365 53.2239L395.995 41.8847C395.768 40.0045 394.051 38.6653 392.16 38.8935L381.468 40.1836C379.576 40.4118 378.227 42.1211 378.454 44.0013L379.823 55.3405C379.892 55.3268 379.96 55.3134 380.031 55.3049Z" fill="black"/>
<path d="M379.823 55.3407C379.892 55.327 379.96 55.3135 380.031 55.305L379.822 55.3302L379.823 55.3407ZM392.16 38.8935L386.156 39.6179C388.047 39.3897 389.765 40.7289 389.992 42.6091L391.36 53.9378L397.155 53.2386C397.225 53.2301 397.295 53.2269 397.365 53.2239L395.995 41.8847C395.768 40.0045 394.051 38.6653 392.16 38.8935Z" fill="black"/>
<path d="M400.064 62.9569L379.515 65.4364C379.365 65.4546 379.213 65.4431 379.068 65.4028C378.923 65.3625 378.787 65.2941 378.668 65.2015C378.549 65.1089 378.45 64.994 378.376 64.8632C378.302 64.7324 378.255 64.5884 378.237 64.4394L377.495 58.2969C377.306 56.7301 378.43 55.3056 380.006 55.1154L397.13 53.0491C398.706 52.8589 400.138 53.9749 400.327 55.5419L401.069 61.6843C401.105 61.9853 401.02 62.2885 400.831 62.5271C400.643 62.7658 400.367 62.9204 400.064 62.9569Z" fill="black"/>
<path d="M384.695 54.5497L392.439 53.6154L393.66 63.7298L385.917 64.6642L384.695 54.5497Z" fill="black"/>
</g>
<g clip-path="url(#clip5_2563_12510)">
<path d="M479.047 122.237L402.705 128.953L397.356 68.1929C396.969 63.7973 402.65 40.9387 402.65 40.9387L463.723 35.5658C463.723 35.5658 473.081 54.4723 473.698 61.4768L479.047 122.237Z" fill="black"/>
<path d="M400.648 18.1536L402.654 40.9387L463.728 35.5658L461.722 12.7807L400.648 18.1536ZM440.157 29.9856L424.888 31.3288C422.78 31.5143 420.922 29.9643 420.737 27.8671C420.552 25.7699 422.112 23.9193 424.22 23.7338L439.488 22.3906C441.596 22.2051 443.455 23.7551 443.639 25.8523C443.824 27.9495 442.265 29.8001 440.157 29.9856Z" fill="black"/>
<path d="M445.838 94.5431L443.497 67.9606L447.649 71.4223L450.797 63.4915L442.494 56.5681L434.86 57.2397C435.137 60.3854 432.798 63.1615 429.636 63.4397C426.474 63.7178 423.686 61.3929 423.409 58.2471L415.775 58.9187L408.809 67.1853L413.295 74.4446L416.778 70.3112L419.118 96.8938L445.838 94.5431Z" fill="black"/>
<path d="M470.557 98.6023C469.002 97.6064 467.229 96.9994 465.387 96.8329C463.545 96.6665 461.69 96.9456 459.979 97.6465C463.216 93.8759 463.645 88.462 461.042 84.2381C458.439 80.0143 453.396 77.9418 448.551 79.1051C443.709 80.2683 440.167 84.4032 439.78 89.345C439.723 89.3408 439.666 89.3457 439.61 89.3507C437.652 89.5232 435.77 90.1934 434.147 91.2969C432.523 92.4004 431.211 93.9003 430.337 95.6526C429.806 93.6594 428.743 91.8464 427.261 90.4058C425.779 88.9651 423.932 87.9504 421.917 87.4689C419.902 86.9872 417.793 87.0568 415.814 87.6704C413.834 88.284 412.058 89.4188 410.673 90.9545C409.287 92.4899 408.345 94.3691 407.945 96.3932C407.545 98.4173 407.703 100.511 408.401 102.452C405.76 101.676 402.925 101.883 400.424 103.033L402.706 128.953L479.048 122.237L476.433 92.5344C473.773 93.7433 471.672 95.9123 470.557 98.6023ZM466.733 69.7433C466.918 71.8405 465.359 73.6912 463.251 73.8767C461.143 74.0621 459.284 72.5121 459.099 70.415C458.915 68.3178 460.474 66.4671 462.582 66.2816C464.69 66.0962 466.549 67.6462 466.733 69.7433Z" fill="black"/>
</g>
<g clip-path="url(#clip6_2563_12510)">
<path d="M454.479 93.5588L451.39 128.793C451.026 132.94 453.96 136.72 458.077 137.195C460.441 137.468 462.663 136.626 464.241 135.095C465.49 136.822 467.448 138.02 469.732 138.22C472.018 138.421 474.154 137.581 475.684 136.098C476.972 137.88 479.013 139.095 481.389 139.238C485.526 139.485 489.073 136.274 489.436 132.127L492.526 96.8925C492.944 92.1286 490.858 87.7272 487.364 84.995C486.706 84.4806 486.813 83.4636 487.561 83.0924C489.499 82.1287 491.165 80.689 492.404 78.9069C493.641 77.1253 494.445 75.004 494.649 72.685C495.12 67.3163 492.237 62.434 487.744 60.1204C486.764 59.6176 486.2 58.5556 486.296 57.4544L486.763 52.1352L484.786 50.733L484.045 50.2094L477.835 45.8078L470.953 49.0623L467.942 50.4859L467.476 55.8053C467.425 56.3826 467.199 56.9167 466.841 57.3399C466.514 57.7363 466.078 58.028 465.588 58.179C460.761 59.6758 457.073 63.9824 456.602 69.3512C456.195 73.9891 458.294 78.2646 461.771 80.8325C462.442 81.328 462.371 82.3483 461.633 82.7401C457.717 84.8232 454.897 88.7951 454.479 93.5588Z" fill="black"/>
<path d="M466.841 57.3402C467.206 56.9068 467.427 56.3706 467.476 55.8056L467.942 50.4861L470.953 49.0625L480.873 49.9317L477.835 45.8077L484.047 50.2096L484.825 50.2778L484.785 50.7332L486.763 52.1345L486.296 57.4539C486.2 58.5553 486.765 59.6171 487.744 60.1198C492.237 62.4333 495.12 67.3156 494.649 72.6845C494.445 75.0033 493.641 77.1246 492.404 78.9064C491.165 80.6884 489.499 82.128 487.561 83.0919C486.813 83.4631 486.706 84.4803 487.364 84.9945C490.858 87.7266 492.944 92.1281 492.526 96.892L489.436 132.127C489.073 136.274 485.526 139.485 481.389 139.238C479.972 139.153 478.675 138.686 477.587 137.946C478.917 136.722 479.958 134.215 480.212 131.318L483.302 96.084C483.72 91.3201 482.824 87.0229 481.126 84.448C480.807 83.9634 480.904 82.9456 481.309 82.5443C482.352 81.5042 483.28 79.9972 483.998 78.17C484.715 76.3429 485.221 74.1955 485.425 71.8764C485.505 70.9626 485.526 70.0922 485.5 69.2663C485.315 63.3584 480.698 58.5544 474.838 58.0409L466.841 57.3402Z" fill="black"/>
<path d="M472.45 38.1012L484.487 39.1559C486.36 39.3201 487.745 40.9791 487.58 42.8616L486.914 50.4606L477.284 52.1393L468.093 48.8115L468.76 41.2125C468.924 39.33 470.577 37.9371 472.45 38.1012Z" fill="black"/>
<path d="M487.109 48.2335L468.289 46.5844L467.92 50.786L486.741 52.4351L487.109 48.2335Z" fill="black"/>
<path d="M479.925 38.7562C481.8 38.9204 483.183 40.5803 483.018 42.4617L482.132 52.5639L486.914 50.4602L487.58 42.8616C487.745 40.9801 486.362 39.3202 484.487 39.1559L479.925 38.7562Z" fill="black"/>
<path d="M467.329 53.7892L486.804 55.4957C488.18 55.6163 489.394 54.5932 489.515 53.2107C489.636 51.8283 488.619 50.6098 487.243 50.4893L467.768 48.7828C466.393 48.6622 465.179 49.6853 465.058 51.0677C464.937 52.4504 465.953 53.6687 467.329 53.7892Z" fill="black"/>
<path d="M479.489 54.8538L486.806 55.4949C488.18 55.6153 489.394 54.5921 489.515 53.211C489.575 52.5195 489.352 51.8686 488.941 51.3758C488.53 50.8831 487.933 50.5489 487.245 50.4886L479.928 49.8475C480.616 49.9078 481.215 50.2422 481.626 50.7349C482.038 51.2276 482.261 51.8784 482.2 52.5701C482.079 53.9511 480.866 54.9744 479.489 54.8538Z" fill="black"/>
<path d="M492.531 96.8925L454.484 93.5587L452.507 116.113L490.553 119.447L492.531 96.8925Z" fill="black"/>
<path d="M492.531 96.8925L483.307 96.0842L481.33 118.639L490.553 119.447L492.531 96.8925Z" fill="black"/>
<path d="M460.397 104.242L484.854 106.385C485.251 106.42 485.645 106.295 485.95 106.038C486.255 105.781 486.447 105.412 486.482 105.014C486.516 104.615 486.392 104.219 486.137 103.913C485.881 103.606 485.514 103.415 485.118 103.38L460.66 101.237C460.264 101.202 459.869 101.327 459.564 101.584C459.259 101.842 459.068 102.21 459.033 102.609C458.998 103.007 459.122 103.403 459.378 103.71C459.634 104.016 460 104.208 460.397 104.242ZM463.417 109.932L480.891 111.463C481.287 111.498 481.681 111.373 481.987 111.116C482.292 110.859 482.483 110.49 482.518 110.092C482.553 109.693 482.429 109.297 482.173 108.991C481.917 108.684 481.551 108.492 481.154 108.458L463.68 106.927C463.283 106.892 462.889 107.017 462.584 107.274C462.279 107.531 462.088 107.9 462.053 108.298C462.018 108.697 462.142 109.093 462.398 109.399C462.653 109.706 463.02 109.897 463.417 109.932Z" fill="black"/>
<path d="M408.336 64.7235L417.173 65.4978L417.84 57.8961L409.003 57.1218C408.714 57.0965 408.427 57.1876 408.204 57.375C407.982 57.5625 407.843 57.831 407.817 58.1214L407.343 63.5327C407.33 63.6765 407.346 63.8214 407.389 63.9591C407.432 64.0968 407.502 64.2246 407.594 64.3352C407.686 64.4458 407.799 64.537 407.927 64.6036C408.054 64.6702 408.193 64.711 408.336 64.7235Z" fill="black"/>
<path d="M407.57 60.9651L407.345 63.5341C407.332 63.678 407.348 63.8228 407.391 63.9605C407.434 64.0981 407.504 64.2258 407.597 64.3363C407.689 64.4468 407.802 64.5379 407.93 64.6044C408.057 64.6709 408.196 64.7115 408.34 64.7238L417.175 65.498L417.4 62.931L408.565 62.1568C408.275 62.1314 408.008 61.9916 407.822 61.7681C407.635 61.5447 407.545 61.2558 407.57 60.9651Z" fill="black"/>
<path d="M416.714 80.6639C417.131 80.7005 417.563 80.6446 417.98 80.4832C422.91 78.5752 426.357 74.8326 427.949 69.66C429.093 65.945 428.871 62.8204 428.842 62.4764C428.71 60.9062 427.336 59.7422 425.773 59.8767C424.214 60.0108 423.056 61.3867 423.182 62.9521C423.212 63.3514 423.763 72.131 415.943 75.1575C414.479 75.724 413.748 77.3757 414.311 78.8462C414.713 79.898 415.668 80.5722 416.714 80.6639Z" fill="black"/>
<path d="M414.233 78.6001C414.256 78.6829 414.282 78.766 414.313 78.8475C414.504 79.3464 414.83 79.7813 415.255 80.1027C415.68 80.4241 416.186 80.6191 416.716 80.6653C417.133 80.7018 417.565 80.6449 417.982 80.4834C422.913 78.5773 426.36 74.8346 427.95 69.6613C429.094 65.9452 428.874 62.8223 428.844 62.4784C428.75 61.3494 428.014 60.4329 427.027 60.0535C427.075 60.228 427.107 60.4065 427.123 60.5868C427.151 60.9305 427.373 64.0556 426.229 67.7698C424.637 72.9429 421.19 76.6855 416.26 78.5938C415.858 78.7499 415.425 78.8113 414.995 78.7736C414.734 78.751 414.478 78.6926 414.233 78.6001Z" fill="black"/>
<path d="M412.754 57.777L412.144 64.7339C412.001 66.3651 413.2 67.8027 414.824 67.9449L424.644 68.8054C426.558 68.9731 427.973 70.6683 427.804 72.5917L426.594 86.3946L439.504 87.5258L440.714 73.7229C440.883 71.7995 442.571 70.3762 444.485 70.5439L447.955 70.848C451.064 71.1204 453.348 67.9698 452.136 65.079L450.136 60.3032C449.843 59.6057 449.367 59.0018 448.758 58.5564C448.149 58.111 447.43 57.8411 446.68 57.7756L415.949 55.0829C414.328 54.9409 412.897 56.146 412.754 57.777Z" fill="black"/>
<path d="M442.474 70.3685L447.955 70.8487C451.065 71.1212 453.348 67.9695 452.136 65.0788L450.136 60.3046C449.843 59.607 449.367 59.003 448.758 58.5576C448.149 58.1121 447.43 57.8422 446.68 57.7769L441.199 57.2967C441.95 57.362 442.668 57.6319 443.277 58.0773C443.886 58.5228 444.363 59.1268 444.655 59.8244L446.656 64.5985C447.869 67.4894 445.584 70.641 442.474 70.3685ZM435.528 73.2684L434.318 87.0716L439.504 87.5261L440.714 73.7228C440.883 71.7991 442.572 70.3772 444.486 70.5449L439.3 70.0905C437.385 69.9227 435.697 71.3446 435.528 73.2684Z" fill="black"/>
<path d="M427.851 83.0892L438.875 84.0552C440.86 84.2291 442.327 85.9869 442.152 87.9814L441.173 99.1521L422.961 97.5564L423.941 86.3857C424.116 84.3911 425.866 82.9153 427.851 83.0892Z" fill="black"/>
<path d="M433.035 83.5444C435.019 83.7183 436.488 85.476 436.313 87.4698L435.334 98.6405L441.173 99.1521L442.152 87.9814C442.327 85.9877 440.86 84.2301 438.874 84.0561L433.035 83.5444Z" fill="black"/>
<path d="M415.022 89.9452L441.94 92.3038C445.712 92.6343 448.5 95.975 448.168 99.7653L445.588 129.188C445.255 132.979 441.928 135.783 438.157 135.453L411.239 133.094C407.467 132.764 404.679 129.423 405.011 125.633L407.591 96.2099C407.923 92.4195 411.251 89.6147 415.022 89.9452Z" fill="black"/>
<path d="M431.554 134.875L438.157 135.454C441.929 135.784 445.255 132.978 445.588 129.188L448.168 99.7653C448.5 95.9748 445.712 92.6347 441.941 92.3042L435.338 91.7257C439.11 92.0562 441.897 95.3962 441.565 99.1868L438.985 128.609C438.653 132.4 435.326 135.206 431.554 134.875Z" fill="black"/>
<path d="M415.695 120.416L435.975 122.193C437.492 122.326 438.83 121.198 438.963 119.674L439.988 107.983C440.122 106.459 439.001 105.115 437.484 104.982L417.204 103.205C415.687 103.072 414.349 104.2 414.216 105.724L413.19 117.415C413.057 118.94 414.178 120.283 415.695 120.416Z" fill="black"/>
<path d="M419.786 111.336L433.526 112.54C433.923 112.575 434.317 112.45 434.622 112.192C434.927 111.935 435.118 111.567 435.153 111.168C435.188 110.769 435.064 110.373 434.809 110.067C434.553 109.761 434.186 109.569 433.79 109.534L420.05 108.33C419.653 108.295 419.259 108.42 418.954 108.678C418.649 108.935 418.458 109.303 418.423 109.702C418.388 110.101 418.512 110.497 418.767 110.803C419.023 111.109 419.39 111.301 419.786 111.336ZM421.301 116.6L431.118 117.46C431.515 117.494 431.909 117.369 432.214 117.112C432.519 116.855 432.71 116.487 432.745 116.088C432.78 115.689 432.656 115.293 432.4 114.987C432.145 114.681 431.778 114.489 431.382 114.454L421.565 113.594C421.168 113.559 420.774 113.684 420.469 113.941C420.164 114.199 419.973 114.567 419.938 114.966C419.903 115.364 420.027 115.76 420.282 116.067C420.538 116.373 420.905 116.565 421.301 116.6Z" fill="black"/>
</g>
<path fill-rule="evenodd" clip-rule="evenodd" d="M375.658 147.551L358.676 84.8748L464.479 78.6154L459.956 142.564L375.658 147.551ZM393.687 93.4169L372.526 94.6688L376.441 110.357L394.626 109.281L393.687 93.4169ZM395.252 119.858L379.051 120.816L382.966 136.505L396.192 135.722L395.252 119.858ZM420.138 91.852L404.267 92.7909L405.207 108.656L421.077 107.717L420.138 91.852ZM421.703 118.293L405.833 119.232L406.772 135.097L422.642 134.158L421.703 118.293ZM448.485 116.709L432.284 117.667L433.223 133.532L446.448 132.749L448.485 116.709ZM449.842 106.015L451.879 89.9742L430.718 91.2261L431.657 107.091L449.842 106.015Z" fill="#504A44"/>
<path d="M461.207 68.1954L500.883 65.8481C502.286 65.7651 503.665 66.2426 504.716 67.1756C505.766 68.1087 506.403 69.4208 506.486 70.8233C506.569 72.2258 506.092 73.6039 505.158 74.6543C504.225 75.7047 502.912 76.3415 501.509 76.4245L461.833 78.7718L461.207 68.1954Z" fill="black"/>
<path fill-rule="evenodd" clip-rule="evenodd" d="M498.87 76.5809L489.402 140.822L455.016 142.856L464.484 78.6153L498.87 76.5809ZM484.342 103.974L486.709 87.9137L476.129 88.5396L473.762 104.6L484.342 103.974ZM480.399 130.741L482.766 114.681L472.186 115.306L469.819 131.367L480.399 130.741Z" fill="black"/>
<path d="M463.859 68.0389L358.056 74.2984C355.134 74.4712 352.906 76.9789 353.079 79.8995C353.252 82.8201 355.76 85.0476 358.682 84.8747L464.485 78.6153C467.407 78.4424 469.635 75.9347 469.462 73.0141C469.289 70.0935 466.78 67.866 463.859 68.0389Z" fill="black"/>
<path d="M467.391 76.6141L483.163 136.893L564.088 132.811L568.961 71.4896L467.391 76.6141Z" fill="black"/>
<g clip-path="url(#clip7_2563_12510)">
<path d="M572.062 48.7979C572.094 47.8719 572.865 47.1467 573.785 47.1781C575.305 47.2301 576.713 47.8744 577.75 48.9924L578.692 50.008C579.729 51.1259 580.272 52.5838 580.22 54.113C580.188 55.039 579.416 55.7642 578.496 55.7328C577.576 55.7013 576.856 54.925 576.888 53.999C576.899 53.6876 576.849 53.3769 576.741 53.085C576.632 52.7932 576.467 52.5259 576.255 52.2987L575.313 51.2831C575.102 51.0547 574.848 50.8708 574.566 50.7418C574.285 50.6128 573.98 50.5414 573.67 50.5316C572.75 50.5001 572.03 49.7239 572.062 48.7979Z" fill="black"/>
<path d="M583.556 54.2269C583.609 52.6978 584.249 51.2803 585.361 50.2359L586.37 49.2871C587.482 48.2425 588.93 47.6959 590.45 47.7478C591.37 47.7793 592.09 48.5556 592.058 49.4816C592.027 50.4075 591.255 51.1328 590.335 51.1013C590.025 51.0899 589.717 51.1404 589.427 51.2498C589.137 51.3592 588.871 51.5255 588.645 51.7389L587.636 52.6877C587.409 52.8999 587.226 53.1553 587.097 53.4391C586.969 53.7228 586.898 54.0293 586.888 54.3409C586.856 55.2669 586.085 55.9921 585.165 55.9607C584.245 55.9292 583.524 55.1529 583.556 54.2269ZM576.346 45.5868C576.353 45.3666 576.404 45.15 576.495 44.9494C576.585 44.7488 576.714 44.5682 576.875 44.418C577.548 43.7853 578.603 43.8214 579.231 44.4985L580.563 45.9347C582.083 47.5721 582.877 49.7071 582.8 51.9464L582.723 54.1985C582.691 55.1244 581.92 55.8497 581 55.8182C580.08 55.7868 579.359 55.0105 579.391 54.0845L579.468 51.8324C579.514 50.4888 579.038 49.2078 578.126 48.2255L576.793 46.7892C576.644 46.6284 576.527 46.4393 576.451 46.233C576.374 46.0267 576.338 45.8071 576.346 45.5868Z" fill="black"/>
<path d="M581.058 54.1415L581.135 51.8894C581.212 49.6501 582.15 47.5744 583.778 46.0447L585.206 44.7028C585.879 44.0702 586.934 44.1062 587.562 44.7834C588.19 45.4604 588.154 46.5221 587.481 47.1546L586.053 48.4965C585.076 49.4143 584.513 50.6597 584.467 52.0033L584.39 54.2554C584.358 55.1814 583.587 55.9066 582.667 55.8752C581.747 55.8437 581.026 55.0674 581.058 54.1415Z" fill="black"/>
<path d="M590.104 57.8083L589.395 78.5293C589.32 80.7312 588.814 82.8969 587.907 84.9025C587 86.9082 585.71 88.7147 584.11 90.2188L582.011 92.1909C581.621 92.5575 581.102 92.7533 580.569 92.735C580.036 92.7168 579.531 92.4861 579.167 92.0936L577.209 89.9828C574.192 86.7315 572.583 82.4066 572.735 77.9596L573.444 57.2385C573.507 55.3865 575.051 53.9361 576.891 53.999L586.887 54.3408C588.727 54.4038 590.167 55.9562 590.104 57.8083Z" fill="black"/>
<path d="M580.57 92.7352L581.718 59.2003C581.75 58.2742 581.03 57.498 580.109 57.4666L573.445 57.2387L572.736 77.9597C572.661 80.1616 573.017 82.3568 573.785 84.4197C574.553 86.4827 575.716 88.3731 577.21 89.983L579.169 92.0937C579.533 92.4862 580.037 92.717 580.57 92.7352ZM585.883 59.3427L590.048 59.4852L590.105 57.8084L585.94 57.666C585.72 57.6584 585.505 57.7395 585.343 57.8914C585.181 58.0433 585.086 58.2535 585.079 58.4759C585.071 58.6982 585.152 58.9145 585.302 59.077C585.453 59.2396 585.662 59.3352 585.883 59.3427ZM585.567 68.5648L589.732 68.7073L589.79 67.0305L585.625 66.8881C585.404 66.8805 585.189 66.9616 585.027 67.1135C584.866 67.2654 584.771 67.4756 584.763 67.698C584.756 67.9203 584.836 68.1366 584.987 68.2991C585.138 68.4617 585.347 68.5573 585.567 68.5648ZM585.252 77.7869L589.417 77.9294L589.474 76.2526L585.309 76.1102C585.088 76.1026 584.873 76.1837 584.712 76.3356C584.55 76.4875 584.455 76.6977 584.448 76.9201C584.44 77.1424 584.52 77.3587 584.671 77.5212C584.822 77.6838 585.031 77.7794 585.252 77.7869Z" fill="black"/>
<path d="M577.383 64.088L573.218 63.9456L573.275 62.2688L577.44 62.4113C577.661 62.4188 577.87 62.5144 578.021 62.677C578.172 62.8395 578.252 63.0558 578.245 63.2781C578.237 63.5005 578.142 63.7107 577.98 63.8626C577.819 64.0145 577.604 64.0956 577.383 64.088ZM577.096 72.4717L572.931 72.3293L572.989 70.6526L577.154 70.795C577.374 70.8026 577.583 70.8981 577.734 71.0607C577.885 71.2233 577.965 71.4395 577.958 71.6619C577.95 71.8842 577.855 72.0945 577.694 72.2463C577.532 72.3982 577.317 72.4793 577.096 72.4717Z" fill="black"/>
<path d="M571.512 69.5251C571.588 67.2959 570.368 65.3252 568.533 64.3475C568.789 63.7242 568.932 63.0598 568.954 62.386C569.06 59.274 566.64 56.6655 563.548 56.5598C563.019 56.5417 562.505 56.5982 562.015 56.7196C561.556 54.1638 559.378 52.1862 556.694 52.0945C555.732 52.0601 554.777 52.2771 553.923 52.7242L553.828 52.6963C553.865 52.4682 553.887 52.2356 553.895 51.9987C554.002 48.8868 551.581 46.2783 548.489 46.1726C545.397 46.0668 542.804 48.5039 542.698 51.6158C542.69 51.8527 542.696 52.0863 542.717 52.3165L542.621 52.3379C541.799 51.8333 540.861 51.5515 539.899 51.5201C537.215 51.4283 534.907 53.2525 534.275 55.771C533.783 55.613 533.272 55.5241 532.756 55.5068C529.664 55.4011 527.071 57.8381 526.964 60.9501C526.941 61.6444 527.043 62.3137 527.25 62.9357C525.352 63.7858 524 65.6685 523.924 67.8977C523.874 69.3081 524.353 70.6857 525.266 71.7563C525.197 72.3622 525.152 72.9707 525.131 73.5803L524.167 101.754C523.741 114.202 533.422 124.636 545.79 125.059C558.158 125.482 568.53 115.733 568.955 103.286L569.92 75.1119C569.941 74.4971 569.937 73.887 569.91 73.2829C570.894 72.2772 571.466 70.9356 571.512 69.5251Z" fill="black"/>
<path d="M542.698 51.6158C542.69 51.8527 542.696 52.0863 542.717 52.3165L542.621 52.3379C541.799 51.8333 540.861 51.5515 539.899 51.5201C537.215 51.4283 534.907 53.2525 534.275 55.771C533.783 55.613 533.272 55.5241 532.756 55.5068C529.664 55.4011 527.071 57.8381 526.964 60.9501C526.941 61.6444 527.043 62.3137 527.25 62.9357C525.352 63.7858 524 65.6685 523.924 67.8977C523.874 69.3081 524.353 70.6857 525.266 71.7563C525.197 72.3622 525.152 72.9707 525.131 73.5803L524.167 101.754C523.954 107.978 528.794 113.195 534.978 113.406C541.162 113.618 546.348 108.744 546.561 102.52L548.489 46.1726C545.397 46.0668 542.804 48.5039 542.698 51.6158Z" fill="black"/>
<path d="M562.788 90.7946L555.651 97.5021C553.779 99.2598 552.103 101.218 550.654 103.342C550.419 101.32 550.21 99.2961 550.026 97.2694C551.77 92.8422 554.483 88.8225 558.045 85.4752L565.181 78.7678C565.453 78.5126 565.612 78.1593 565.625 77.7857C565.638 77.4121 565.503 77.0487 565.249 76.7755C564.996 76.5024 564.645 76.3418 564.274 76.3291C563.902 76.3164 563.541 76.4526 563.27 76.7079L556.133 83.4153C553.53 85.8622 551.339 88.6536 549.589 91.7401C549.479 90.1135 549.386 88.4858 549.308 86.8572C550.849 80.9782 554.003 75.6407 558.527 71.3884L559.872 70.1242C560.143 69.869 560.303 69.5158 560.316 69.1422C560.329 68.7685 560.193 68.4052 559.94 68.132C559.686 67.8589 559.335 67.6983 558.964 67.6856C558.593 67.6729 558.232 67.8091 557.96 68.0643L556.615 69.3285C553.49 72.2664 550.957 75.7003 549.072 79.5467C549 75.3801 549.035 71.2124 549.177 67.0475L549.36 61.7159C549.372 61.3422 549.237 60.9789 548.984 60.7057C548.73 60.4326 548.379 60.272 548.008 60.2593C547.637 60.2466 547.276 60.3829 547.004 60.6381C546.733 60.8933 546.573 61.2465 546.56 61.6201L546.378 66.9516C546.235 71.1164 545.985 75.2768 545.628 79.4287C544.01 75.4626 541.718 71.8636 538.801 68.7192L537.545 67.366C537.292 67.093 536.941 66.9325 536.57 66.9198C536.199 66.9071 535.838 67.0433 535.566 67.2983C535.432 67.4247 535.323 67.5765 535.247 67.745C535.171 67.9135 535.128 68.0954 535.122 68.2804C535.116 68.4654 535.145 68.6499 535.21 68.8232C535.274 68.9965 535.372 69.1553 535.498 69.2906L536.753 70.6437C540.976 75.195 543.758 80.7354 544.892 86.706C544.704 88.3255 544.499 89.943 544.278 91.5583C542.744 88.3595 540.749 85.425 538.319 82.8059L531.657 75.6266C531.404 75.3536 531.053 75.193 530.682 75.1803C530.311 75.1677 529.95 75.3038 529.678 75.559C529.544 75.6853 529.435 75.8371 529.359 76.0056C529.283 76.1741 529.24 76.356 529.234 76.5411C529.228 76.7261 529.258 76.9105 529.322 77.0838C529.387 77.2571 529.484 77.4159 529.61 77.5512L536.271 84.7305C539.595 88.3132 542.027 92.5089 543.465 97.0448C543.143 99.0543 542.796 101.06 542.423 103.06C541.122 100.842 539.584 98.7742 537.837 96.8927L531.175 89.7134C530.922 89.4404 530.571 89.2798 530.2 89.2671C529.829 89.2544 529.468 89.3906 529.196 89.6458C529.062 89.7721 528.953 89.9239 528.877 90.0924C528.801 90.2609 528.758 90.4428 528.752 90.6278C528.746 90.8128 528.776 90.9973 528.84 91.1706C528.905 91.3439 529.002 91.5027 529.128 91.638L535.789 98.8173C538.194 101.41 540.132 104.323 541.564 107.453C540.687 111.732 539.694 115.986 538.588 120.211L537.783 123.279C540.251 124.336 542.95 124.961 545.791 125.059C548.631 125.156 551.367 124.716 553.9 123.831L553.308 120.714C552.493 116.424 551.793 112.112 551.21 107.783C552.853 104.758 554.986 101.984 557.562 99.562L564.699 92.8546C564.971 92.5994 565.13 92.2461 565.143 91.8725C565.156 91.4989 565.021 91.1355 564.767 90.8623C564.514 90.5892 564.163 90.4286 563.792 90.4159C563.42 90.4032 563.059 90.5394 562.788 90.7946Z" fill="black"/>
<path d="M562.783 90.7947L555.647 97.5021C553.775 99.2598 552.099 101.218 550.65 103.342C550.415 101.32 550.205 99.2961 550.021 97.2694C551.766 92.8423 554.479 88.8225 558.04 85.4753L565.177 78.7678C565.448 78.5126 565.608 78.1593 565.621 77.7857C565.634 77.4121 565.498 77.0487 565.245 76.7756C564.991 76.5024 564.641 76.3418 564.269 76.3291C563.898 76.3164 563.537 76.4527 563.265 76.7079L556.129 83.4153C553.526 85.8623 551.334 88.6536 549.585 91.7401C549.475 90.1135 549.381 88.4858 549.304 86.8573C550.844 80.9783 553.998 75.6407 558.522 71.3885L559.867 70.1243C560.139 69.8691 560.299 69.5158 560.311 69.1422C560.324 68.7686 560.189 68.4052 559.936 68.132C559.682 67.8589 559.331 67.6983 558.96 67.6856C558.589 67.6729 558.228 67.8091 557.956 68.0644L556.611 69.3286C553.485 72.2664 550.953 75.7003 549.068 79.5467C548.996 75.3802 549.031 71.2124 549.173 67.0476L549.355 61.7159C549.368 61.3423 549.233 60.9789 548.979 60.7058C548.726 60.4326 548.375 60.272 548.004 60.2593C547.633 60.2466 547.272 60.3829 547 60.6381C546.728 60.8933 546.569 61.2465 546.556 61.6202L546.373 66.9516C545.758 84.9406 543.145 102.805 538.583 120.211L537.779 123.28C540.247 124.336 542.945 124.961 545.786 125.059C548.627 125.156 551.362 124.716 553.896 123.831L553.304 120.714C552.488 116.424 551.789 112.112 551.206 107.784C552.849 104.758 554.981 101.984 557.558 99.562L564.695 92.8546C564.966 92.5994 565.126 92.2461 565.139 91.8725C565.152 91.4989 565.016 91.1355 564.763 90.8624C564.509 90.5892 564.158 90.4286 563.787 90.4159C563.416 90.4032 563.055 90.5395 562.783 90.7947Z" fill="black"/>
<path d="M546.267 111.077L548.006 60.2593C547.635 60.2467 547.274 60.3829 547.002 60.6381C546.73 60.8933 546.571 61.2466 546.558 61.6202L546.375 66.9517C545.875 81.5753 544.055 96.1165 540.941 110.396C540.579 112.055 541.793 113.639 543.479 113.697C544.967 113.748 546.215 112.575 546.267 111.077Z" fill="black"/>
<path d="M545.878 86.1844C545.449 86.1698 545.045 85.9846 544.752 85.6695C544.46 85.3544 544.304 84.9353 544.319 84.5044L544.374 82.8796C544.528 78.3999 548.273 74.8793 552.724 75.0315C553.153 75.0461 553.557 75.2313 553.85 75.5464C554.142 75.8615 554.298 76.2806 554.283 76.7115C554.268 77.1424 554.084 77.5499 553.771 77.8443C553.458 78.1386 553.041 78.2958 552.613 78.2811C549.943 78.1898 547.695 80.3023 547.603 82.99L547.548 84.6148C547.533 85.0457 547.349 85.4532 547.035 85.7476C546.722 86.0419 546.306 86.1991 545.878 86.1844Z" fill="black"/>
<path d="M544.597 123.556C555.296 123.921 564.269 115.489 564.637 104.72C565.006 93.9517 556.631 84.9256 545.932 84.5597C535.232 84.1938 526.26 92.6267 525.891 103.395C525.523 114.164 533.898 123.19 544.597 123.556Z" fill="black"/>
<path d="M538.807 103.837L525.891 103.395C526.26 92.6268 535.232 84.1938 545.932 84.5597L545.487 97.5583C545.364 101.148 542.373 103.959 538.807 103.837Z" fill="black"/>
<path d="M535.803 97.2268C537.587 97.2878 539.082 95.8823 539.143 94.0875C539.205 92.2928 537.809 90.7885 536.026 90.7275C534.242 90.6665 532.747 92.072 532.686 93.8667C532.624 95.6615 534.02 97.1658 535.803 97.2268Z" fill="black"/>
<path d="M557.29 83.3212L534.689 82.5483C534.26 82.5337 533.844 82.6908 533.531 82.9852C533.218 83.2795 533.033 83.687 533.019 84.1179C533.004 84.5489 533.16 84.968 533.452 85.283C533.744 85.5981 534.149 85.7833 534.577 85.798L541.981 86.0511L539.822 88.0805C539.666 88.2262 539.541 88.4012 539.454 88.5956C539.366 88.79 539.317 88.9998 539.309 89.2132C539.302 89.4266 539.337 89.6394 539.411 89.8393C539.485 90.0392 539.598 90.2224 539.743 90.3784C540.035 90.6933 540.44 90.8785 540.868 90.8931C541.296 90.9078 541.713 90.7507 542.026 90.4564L545.855 86.8573L549.429 90.7096C549.734 91.0376 550.141 91.2104 550.555 91.2245C550.968 91.2387 551.387 91.0942 551.713 90.7877C551.868 90.6419 551.993 90.4669 552.081 90.2725C552.169 90.0782 552.218 89.8683 552.225 89.6549C552.232 89.4415 552.198 89.2288 552.123 89.0289C552.049 88.829 551.936 88.6458 551.791 88.4898L549.776 86.3177L557.179 86.5709C557.607 86.5855 558.024 86.4284 558.337 86.134C558.65 85.8396 558.834 85.4322 558.849 85.0012C558.864 84.5703 558.708 84.1512 558.416 83.8362C558.123 83.5211 557.719 83.3359 557.29 83.3212Z" fill="black"/>
<path d="M558.034 48.5643C557.606 48.5496 557.201 48.3644 556.908 48.0493C556.616 47.7342 556.46 47.3151 556.475 46.8842L556.531 45.2594C556.684 40.7797 560.43 37.2591 564.881 37.4113C565.309 37.4259 565.714 37.6112 566.006 37.9262C566.298 38.2413 566.454 38.6604 566.439 39.0913C566.425 39.5223 566.24 39.9297 565.927 40.2241C565.614 40.5184 565.198 40.6756 564.769 40.6609C562.099 40.5696 559.851 42.6821 559.759 45.3698L559.704 46.9946C559.689 47.4256 559.505 47.833 559.192 48.1274C558.878 48.4218 558.462 48.5789 558.034 48.5643Z" fill="black"/>
<path d="M556.753 85.9354C567.453 86.3013 576.425 77.8683 576.794 67.0999C577.162 56.3315 568.787 47.3054 558.088 46.9395C547.388 46.5736 538.416 55.0066 538.048 65.775C537.679 76.5434 546.054 85.5695 556.753 85.9354Z" fill="black"/>
<path d="M550.963 66.2166L538.048 65.775C538.416 55.0066 547.388 46.5736 558.088 46.9395L557.643 59.9381C557.52 63.5276 554.529 66.3386 550.963 66.2166Z" fill="black"/>
<path d="M547.96 59.6067C549.743 59.6677 551.238 58.2622 551.3 56.4674C551.361 54.6727 549.965 53.1683 548.182 53.1074C546.399 53.0464 544.903 54.4519 544.842 56.2466C544.78 58.0413 546.176 59.5457 547.96 59.6067Z" fill="black"/>
<path d="M569.447 45.701L546.845 44.9281C546.417 44.9135 546 45.0706 545.687 45.365C545.374 45.6594 545.19 46.0668 545.175 46.4978C545.16 46.9287 545.316 47.3478 545.608 47.6628C545.901 47.9779 546.306 48.1631 546.734 48.1778L554.137 48.431L551.978 50.4603C551.823 50.606 551.698 50.7811 551.61 50.9754C551.522 51.1698 551.473 51.3797 551.466 51.5931C551.458 51.8064 551.493 52.0192 551.567 52.2191C551.642 52.419 551.754 52.6022 551.899 52.7582C552.192 53.0732 552.596 53.2583 553.024 53.273C553.453 53.2876 553.869 53.1305 554.182 52.8363L558.012 49.2371L561.586 53.0894C561.89 53.4175 562.298 53.5902 562.711 53.6043C563.124 53.6185 563.543 53.474 563.869 53.1675C564.024 53.0218 564.149 52.8467 564.237 52.6524C564.325 52.458 564.374 52.2481 564.381 52.0347C564.388 51.8213 564.354 51.6086 564.28 51.4087C564.205 51.2088 564.092 51.0256 563.948 50.8696L561.932 48.6975L569.335 48.9507C569.764 48.9653 570.18 48.8082 570.493 48.5138C570.807 48.2195 570.991 47.812 571.005 47.3811C571.02 46.9501 570.864 46.531 570.572 46.216C570.28 45.9009 569.875 45.7157 569.447 45.701Z" fill="black"/>
<path d="M578.108 88.9134C577.68 88.8988 577.275 88.7136 576.983 88.3985C576.69 88.0834 576.534 87.6643 576.549 87.2334L576.605 85.6086C576.758 81.1289 580.504 77.6083 584.955 77.7605C585.383 77.7751 585.788 77.9603 586.08 78.2754C586.372 78.5905 586.528 79.0096 586.514 79.4405C586.499 79.8714 586.315 80.2789 586.002 80.5733C585.688 80.8676 585.272 81.0248 584.844 81.0101C582.173 80.9188 579.926 83.0313 579.834 85.719L579.778 87.3438C579.763 87.7747 579.579 88.1822 579.266 88.4766C578.953 88.7709 578.536 88.9281 578.108 88.9134Z" fill="black"/>
<path d="M576.828 126.284C587.527 126.65 596.499 118.217 596.868 107.449C597.236 96.6807 588.861 87.6545 578.162 87.2886C567.463 86.9228 558.49 95.3557 558.122 106.124C557.753 116.892 566.128 125.919 576.828 126.284Z" fill="black"/>
<path d="M571.037 106.566L558.122 106.124C558.49 95.3557 567.463 86.9228 578.162 87.2886L577.717 100.287C577.594 103.877 574.604 106.688 571.037 106.566Z" fill="black"/>
<path d="M568.034 99.9558C569.817 100.017 571.312 98.6113 571.374 96.8166C571.435 95.0218 570.039 93.5175 568.256 93.4565C566.473 93.3955 564.978 94.801 564.916 96.5957C564.855 98.3905 566.251 99.8948 568.034 99.9558Z" fill="black"/>
<path d="M589.521 86.0502L566.919 85.2773C566.491 85.2627 566.074 85.4198 565.761 85.7142C565.448 86.0085 565.264 86.416 565.249 86.8469C565.234 87.2779 565.39 87.697 565.683 88.012C565.975 88.3271 566.38 88.5123 566.808 88.527L574.211 88.7801L572.052 90.8095C571.897 90.9552 571.772 91.1302 571.684 91.3246C571.596 91.519 571.547 91.7289 571.54 91.9422C571.532 92.1556 571.567 92.3684 571.641 92.5683C571.716 92.7682 571.829 92.9514 571.973 93.1074C572.266 93.4223 572.671 93.6075 573.099 93.6221C573.527 93.6368 573.943 93.4797 574.256 93.1854L578.086 89.5863L581.66 93.4386C581.964 93.7666 582.372 93.9394 582.785 93.9535C583.199 93.9677 583.617 93.8232 583.943 93.5167C584.098 93.371 584.223 93.1959 584.311 93.0015C584.399 92.8072 584.448 92.5973 584.455 92.3839C584.463 92.1705 584.428 91.9578 584.354 91.7579C584.279 91.558 584.167 91.3748 584.022 91.2188L582.006 89.0467L589.41 89.2999C589.838 89.3145 590.254 89.1574 590.568 88.863C590.881 88.5687 591.065 88.1612 591.08 87.7303C591.094 87.2993 590.939 86.8802 590.646 86.5652C590.354 86.2501 589.949 86.0649 589.521 86.0502Z" fill="black"/>
</g>
<g clip-path="url(#clip8_2563_12510)">
<path d="M521.884 59.7891C519.567 57.7875 517.106 55.9394 514.568 54.296L514.533 54.2824C508.398 53.2061 502.076 55.5914 497.187 60.8252C497.084 60.9338 497.02 61.0726 497.004 61.2206C496.988 61.3685 497.021 61.5177 497.097 61.6457C497.215 61.845 497.414 61.9616 497.631 61.9691C497.691 61.9711 497.752 61.9649 497.813 61.95C504.245 60.3896 510.853 60.0679 517.454 60.9927L517.476 60.9958L517.497 60.9888C518.908 60.5109 520.361 60.1635 521.837 59.9511L522.038 59.9221L521.884 59.7891Z" fill="black"/>
<path d="M500.92 60.9526C504.694 56.9112 509.324 54.5703 514.063 54.2078C508.076 53.3309 501.951 55.7248 497.187 60.825C497.085 60.9336 497.02 61.0724 497.004 61.2204C496.988 61.3683 497.021 61.5176 497.097 61.6455C497.215 61.8448 497.414 61.9614 497.631 61.9689C497.691 61.9709 497.752 61.9647 497.813 61.9498C498.783 61.7158 499.759 61.5094 500.74 61.331C500.759 61.1894 500.822 61.0573 500.92 60.9526Z" fill="black"/>
<path d="M524.272 59.6088C522.968 55.5446 521.179 51.6496 518.945 48.0067L518.925 47.9838C512.755 42.8346 504.223 41.5607 495.517 44.4885C495.159 44.609 494.936 44.9317 494.949 45.3108C494.961 45.6728 495.193 45.9658 495.54 46.0576C505.138 48.5975 514.208 53.3939 521.771 59.9284L521.803 59.9562L521.845 59.9503C522.622 59.8391 523.404 59.7654 524.188 59.7297L524.31 59.7243L524.272 59.6088Z" fill="black"/>
<path d="M523.067 56.2563C516.065 50.8096 507.964 46.7768 499.445 44.5226C499.098 44.4308 498.866 44.1378 498.854 43.7758C498.852 43.7049 498.859 43.634 498.875 43.5647C497.738 43.8088 496.616 44.1172 495.515 44.4883C495.156 44.6088 494.933 44.9315 494.946 45.3107C494.958 45.6726 495.19 45.9656 495.537 46.0574C505.135 48.5973 514.205 53.3937 521.768 59.9283L521.8 59.9561L521.843 59.9501C522.619 59.8389 523.401 59.7653 524.185 59.7295L524.307 59.7241L524.27 59.6088C523.906 58.4783 523.505 57.3602 523.067 56.2563Z" fill="black"/>
<path d="M526.544 50.9185L526.549 50.8999L526.546 50.881C525.183 42.8971 519.078 37.2553 510.214 35.7888C509.911 35.7395 509.626 35.8847 509.489 36.1611C509.356 36.4303 509.412 36.7346 509.63 36.9369C516.304 43.1056 521.306 50.9647 524.097 59.6647L524.119 59.7326L524.19 59.7292C524.8 59.7016 525.425 59.6968 526.047 59.7152L526.122 59.7174L526.175 59.5043C526.206 59.3821 526.236 59.2598 526.263 59.1382L526.267 59.1214L526.264 59.1043C525.827 56.2466 525.922 53.4925 526.544 50.9185Z" fill="black"/>
<path d="M526.006 54.9392C523.081 48.1725 518.771 42.0634 513.363 37.0647C513.28 36.9899 513.219 36.895 513.184 36.7895C513.149 36.6839 513.142 36.5712 513.165 36.4623C512.196 36.1785 511.21 35.9537 510.214 35.789C509.911 35.7397 509.626 35.8849 509.489 36.1613C509.356 36.4304 509.412 36.7347 509.63 36.937C516.304 43.1058 521.306 50.9649 524.097 59.6649L524.119 59.7327L524.19 59.7294C524.8 59.7017 525.425 59.6969 526.047 59.7153L526.122 59.7175L526.175 59.5045C526.206 59.3823 526.236 59.2599 526.263 59.1384L526.267 59.1215L526.264 59.1045C526.048 57.6873 525.962 56.2959 526.006 54.9392Z" fill="black"/>
<path d="M554.967 62.8011C547.291 53.3654 538.092 55.1032 538.073 55.0998C535.429 56.566 532.846 58.2416 530.398 60.0802L530.236 60.2024L530.435 60.2451C531.892 60.5581 533.318 61.0038 534.693 61.5768L534.714 61.5853L534.736 61.5837C541.384 61.1116 547.955 61.8844 554.265 63.8805C554.326 63.8993 554.386 63.9099 554.445 63.9119C554.663 63.9193 554.869 63.8167 555 63.6258C555.085 63.5033 555.128 63.3567 555.122 63.208C555.116 63.0592 555.062 62.9164 554.967 62.8011Z" fill="black"/>
<path d="M538.073 55.0998C535.429 56.566 532.847 58.2416 530.399 60.0802L530.236 60.2024L530.436 60.2451C531.893 60.558 533.319 61.0038 534.694 61.5767L534.714 61.5852L534.737 61.5836C534.831 61.5769 534.926 61.573 535.021 61.5668C538.26 59.3562 541.701 57.4534 545.299 55.8834C541.432 54.601 538.589 55.1011 538.073 55.0998Z" fill="black"/>
<path d="M557.75 46.6165C543.367 40.6575 534.156 48.519 534.136 48.526C531.658 52.0078 529.608 55.7715 528.029 59.7371L527.984 59.8496L528.105 59.8633C528.884 59.9527 529.666 60.0807 530.427 60.2434L530.468 60.2523L530.503 60.2267C538.494 54.2241 547.871 50.0585 557.621 48.1802C557.973 48.1124 558.225 47.8359 558.261 47.4756C558.3 47.0984 558.099 46.7612 557.75 46.6165Z" fill="black"/>
<path d="M537.737 49.4214C538.267 48.649 538.795 48.3184 538.961 48.176C542.399 45.6846 545.746 44.7882 550.027 44.5712C544.22 43.8962 538.684 45.2256 534.158 48.5047C533.709 49.2229 530.62 53.2289 528.029 59.737L527.984 59.8495L528.105 59.8632C528.885 59.9527 529.666 60.0806 530.427 60.2434L530.469 60.2522L530.503 60.2266C531.209 59.6971 531.925 59.1819 532.651 58.6812C534.036 55.4358 535.74 52.3342 537.737 49.4214Z" fill="black"/>
<path d="M544.38 37.3548C544.263 37.0697 543.988 36.9055 543.682 36.9338C531.397 38.1118 524.058 47.5968 526.159 59.6455L526.172 59.7194L526.248 59.7224C526.868 59.7463 527.492 59.7938 528.103 59.8634L528.174 59.8716L528.2 59.8053C531.579 51.3162 537.107 43.8173 544.186 38.1189C544.418 37.9322 544.494 37.6324 544.38 37.3548Z" fill="black"/>
<path d="M544.38 37.3548C544.263 37.0697 543.988 36.9055 543.682 36.9338C531.397 38.1118 524.058 47.5968 526.159 59.6455L526.172 59.7194L526.248 59.7224C526.868 59.7463 527.492 59.7938 528.103 59.8634L528.174 59.8716L528.2 59.8053C531.579 51.3162 537.107 43.8173 544.186 38.1189C544.418 37.9322 544.494 37.6324 544.38 37.3548Z" fill="black"/>
<path d="M544.419 37.4884C544.41 37.4427 544.397 37.3979 544.38 37.3548C544.263 37.0697 543.988 36.9055 543.682 36.9338C531.397 38.1118 524.058 47.5968 526.159 59.6455L526.172 59.7194L526.248 59.7224C526.868 59.7463 527.492 59.7938 528.103 59.8634L528.174 59.8716L528.2 59.8053C528.57 58.876 528.967 57.9572 529.39 57.05C528.837 47.3837 534.53 39.6118 544.419 37.4884Z" fill="black"/>
<path d="M526.16 59.3616C512.547 58.8961 501.031 69.5832 500.568 83.1107L499.882 103.178C499.419 116.706 510.177 128.154 523.789 128.62C537.402 129.085 548.917 118.398 549.38 104.871L550.067 84.8033C550.53 71.2759 539.772 59.8271 526.16 59.3616Z" fill="black"/>
<path d="M503.614 103.306L504.301 83.2383C504.743 70.3346 515.241 60.0157 528.023 59.4955C527.404 59.4277 526.782 59.383 526.159 59.3616C512.547 58.8961 501.031 69.5832 500.568 83.1107L499.882 103.178C499.419 116.706 510.177 128.154 523.789 128.62C524.417 128.641 525.04 128.639 525.658 128.614C512.942 127.222 503.173 116.21 503.614 103.306Z" fill="black"/>
<path d="M544.94 118.077C545.496 117.288 546.004 116.468 546.463 115.62L539.486 108.196L549.591 98.8189L549.781 93.2567L540.376 83.2482L548.608 75.6244C548.269 74.6979 547.874 73.7925 547.426 72.9131L538.464 81.2132L528.181 70.2708L536.862 62.2042C535.968 61.7324 535.047 61.3158 534.102 60.9566L526.269 68.2359L518.748 60.2322C517.763 60.5038 516.795 60.8362 515.852 61.2277L524.224 70.1369L513.28 80.3073L504.386 70.8429C503.86 71.6674 503.384 72.5223 502.96 73.4031L511.234 82.2083L500.29 92.3787L500.256 92.3418L500.119 96.3502L500.157 96.3144L510.395 107.209L502.334 114.675C502.754 115.536 503.223 116.372 503.74 117.178L512.307 109.244L522.53 120.123L515.319 126.815C516.302 127.215 517.311 127.551 518.339 127.821L524.442 122.158L529.983 128.054C531.005 127.828 532.011 127.537 532.996 127.182L526.489 120.258L537.44 110.096L544.94 118.077ZM548.525 95.9981L537.574 106.161L527.366 95.2972L538.327 85.1456L548.525 95.9981ZM526.135 72.1717L536.415 83.1108L525.454 93.2624L515.192 82.3421L526.135 72.1717ZM502.202 94.4135L513.146 84.2431L523.405 95.16L512.444 105.312L502.202 94.4135ZM524.576 118.223L514.356 107.347L525.317 97.195L535.527 108.061L524.576 118.223Z" fill="black"/>
</g>
<path d="M562.899 95.5859L563.543 100.146L567.518 103.218C569.055 102.156 570.856 100.86 570.912 99.9718C571.008 98.4754 569.229 96.0142 569.229 96.0142C568.012 95.2615 564.692 95.7328 562.899 95.5859Z" fill="black"/>
<path d="M493.259 55.9459L491.997 53.1499C489.709 53.8765 487.586 54.0301 486.205 54.7001C478.405 58.4679 472.715 70.4931 472.326 77.7867C471.324 96.5517 478.421 110.194 487.316 119.066C490.692 122.434 496.733 127.453 506.719 128.424C507.209 128.472 507.832 128.562 508.502 128.653L506.627 123.199L509.825 119.441C507.898 116.671 505.164 113.556 503.175 110.643C498.143 105.825 493.962 99.2392 491.376 90.1301C489.217 82.5252 488.478 68.6766 493.87 61.5642C494.824 60.3029 496.698 59.1668 498.455 57.4297L493.62 56.7427L493.259 55.9459Z" fill="black"/>
<path d="M472.324 77.7869C472.714 70.4931 478.404 58.4679 486.204 54.7002C487.585 54.0302 489.708 53.8765 491.996 53.1499L493.258 55.946L493.618 56.7427L493.631 56.7446C488.906 61.8028 485.588 69.175 485.046 74.3178C483.078 93.0058 489.46 107 497.884 116.325C499.791 118.434 502.613 121.179 506.683 123.368L508.501 128.653C507.831 128.562 507.207 128.472 506.718 128.424C496.732 127.453 490.691 122.434 487.315 119.067C478.42 110.194 471.323 96.5519 472.324 77.7869Z" fill="black"/>
<path d="M543.662 113.664L545.766 110.035C542.011 108.102 534.808 105.214 531.91 104.105C520.683 99.8064 511.331 85.8773 509.001 74.2177C508.404 71.2264 507.703 68.474 505.107 59.9657C505.014 59.6575 504.956 59.3397 504.934 59.0184L501.625 59.975L498.459 57.4298L498.457 57.4297C496.701 59.1668 494.827 60.3029 493.873 61.5642C488.481 68.6766 489.22 82.5252 491.379 90.1301C493.964 99.2392 498.145 105.825 503.178 110.643C508.452 115.691 514.66 118.803 520.951 120.848C525.619 122.367 536.708 123.457 547.114 119.75L543.662 113.664Z" fill="black"/>
<path d="M493.873 61.5645C494.826 60.3033 496.701 59.1672 498.457 57.4301L498.459 57.4301L500.575 59.1326C497.914 66.8068 499.327 77.6799 501.512 84.0154C504.6 92.9654 509.139 99.3067 514.431 103.835C519.977 108.58 526.348 111.339 532.743 113.029C535.119 113.657 539.095 114.088 543.752 113.824L547.114 119.751C536.708 123.458 525.619 122.368 520.951 120.849C514.66 118.805 508.451 115.692 503.178 110.644C498.145 105.826 493.964 99.2401 491.378 90.1313C489.22 82.5253 488.481 68.6767 493.873 61.5645Z" fill="black"/>
<path d="M509.828 119.441L506.629 123.199L508.505 128.653C510.354 128.903 512.553 129.16 513.189 128.54C514.261 127.496 514.591 124.474 514.591 124.474C514.147 122.93 510.74 120.75 509.828 119.441Z" fill="black"/>
<path d="M498.456 57.4297L498.458 57.4298L501.623 59.9751L504.933 59.0185C504.651 55.3431 508.299 50.4696 508.299 50.4696L508.385 47.7951C508.385 47.7951 510.687 44.5708 509.312 41.8422C509.238 41.7211 509.135 41.62 509.013 41.5477C508.89 41.4753 508.753 41.4339 508.611 41.427C508.611 41.425 508.609 41.4269 508.609 41.4269C507.165 41.1962 504.22 42.3894 504.22 42.3894C504.086 42.5254 503.96 42.6576 503.844 42.7902C501.883 45.0236 502.558 46.8154 502.459 48.4788C502.199 52.8529 500.399 55.5095 498.456 57.4297Z" fill="black"/>
<path d="M543.514 114.882L543.647 114.886C543.969 114.891 544.281 114.767 544.512 114.541C544.743 114.315 544.876 114.006 544.881 113.682C544.885 113.358 544.762 113.045 544.537 112.813C544.312 112.58 544.005 112.447 543.683 112.443C541.719 112.346 539.769 112.058 537.861 111.585C537.706 111.548 537.544 111.542 537.387 111.568C537.229 111.594 537.078 111.65 536.942 111.735C536.806 111.819 536.688 111.93 536.595 112.06C536.502 112.19 536.435 112.337 536.398 112.493C536.361 112.65 536.355 112.812 536.381 112.97C536.407 113.128 536.463 113.28 536.547 113.417C536.631 113.553 536.741 113.672 536.87 113.765C537 113.859 537.146 113.926 537.302 113.963C539.339 114.464 541.419 114.772 543.514 114.882Z" fill="black"/>
<path d="M481.893 66.8219C482.123 66.8298 482.35 66.7721 482.549 66.6555C482.747 66.5388 482.909 66.368 483.015 66.1628C486.642 59.1369 489.775 57.4838 493.366 57.164C493.525 57.1498 493.68 57.1042 493.821 57.0299C493.963 56.9556 494.088 56.854 494.191 56.731C494.293 56.6079 494.371 56.4657 494.419 56.3126C494.467 56.1595 494.484 55.9985 494.47 55.8387C494.456 55.6788 494.41 55.5234 494.337 55.3811C494.263 55.2389 494.162 55.1127 494.039 55.0097C493.917 54.9068 493.775 54.8291 493.623 54.781C493.471 54.733 493.31 54.7156 493.151 54.7298C486.726 55.3033 483.444 60.0234 480.856 65.0387C480.762 65.2218 480.715 65.426 480.72 65.6322C480.725 65.8384 480.782 66.0399 480.885 66.218C480.989 66.396 481.136 66.5448 481.312 66.6506C481.488 66.7563 481.688 66.8154 481.893 66.8225L481.893 66.8219Z" fill="black"/>
<path d="M491.995 53.1497L493.258 55.9458L493.618 56.7426L498.453 57.4295C500.396 55.5093 502.197 52.8527 502.456 48.4786C502.555 46.8152 501.881 45.0234 503.841 42.79L503.607 42.6984C500.447 43.7233 500.266 45.7058 499.4 47.18C497.251 50.8435 494.523 52.3457 491.995 53.1497Z" fill="black"/>
<path d="M549.929 111.249C548.385 110.807 546.62 110.476 545.765 110.035L543.661 113.664L547.113 119.75C548.901 119.112 552.694 118.011 553.096 116.831C553.592 115.369 552.48 112.435 552.48 112.435C552.012 111.932 551.025 111.562 549.929 111.249Z" fill="black"/>
<path fill-rule="evenodd" clip-rule="evenodd" d="M483.166 136.894L467.394 76.6143L568.964 71.4899L564.091 132.811L483.166 136.894ZM500.916 85.1021L480.602 86.127L484.228 101.213L501.685 100.332L500.916 85.1021ZM502.198 110.485L486.645 111.27L490.27 126.356L502.967 125.715L502.198 110.485ZM526.309 83.821L511.073 84.5897L511.842 99.8197L527.078 99.051L526.309 83.821ZM527.59 109.204L512.355 109.973L513.124 125.203L528.359 124.434L527.59 109.204ZM553.3 107.907L537.747 108.692L538.516 123.922L551.213 123.281L553.3 107.907ZM554.692 97.6578L556.78 82.2837L536.466 83.3086L537.235 98.5386L554.692 97.6578Z" fill="#504A44"/>
<path d="M565.914 61.4644L604.003 59.5428C605.35 59.4748 606.669 59.9445 607.669 60.8485C608.67 61.7525 609.27 63.0168 609.338 64.3632C609.406 65.7096 608.936 67.0279 608.032 68.028C607.127 69.0281 605.863 69.6281 604.516 69.6961L566.427 71.6177L565.914 61.4644Z" fill="black"/>
<path d="M568.454 61.336L466.883 66.4604C464.078 66.6019 461.919 68.9895 462.061 71.7933C462.203 74.597 464.591 76.7552 467.396 76.6137L568.967 71.4893C571.771 71.3478 573.93 68.9602 573.789 66.1564C573.647 63.3526 571.259 61.1944 568.454 61.336Z" fill="black"/>
<path fill-rule="evenodd" clip-rule="evenodd" d="M601.971 69.8242L592.35 131.385L559.34 133.05L568.96 71.4897L601.971 69.8242ZM587.804 95.987L590.209 80.5969L580.052 81.1093L577.647 96.4994L587.804 95.987ZM583.798 121.637L586.203 106.247L576.046 106.759L573.64 122.15L583.798 121.637Z" fill="black"/>
<path d="M446.891 132.99L720.529 122.147C725.346 121.957 729.405 125.706 729.596 130.522V130.522C729.786 135.338 726.037 139.397 721.221 139.588L447.582 150.431L446.891 132.99Z" fill="black"/>
<path d="M257.742 135.975L605.842 107.836L621.637 87.7476V87.7476C625.205 87.7431 628.148 90.5431 628.321 94.1075L629.853 125.727L257.726 147.73L257.742 135.975Z" fill="black"/>
<path d="M263.467 146.482L677.71 124.727C682.721 124.464 686.989 128.327 687.225 133.339V133.339C687.46 138.313 683.632 142.542 678.66 142.803L264.319 164.562L263.467 146.482Z" fill="#504A44"/>
<path d="M546.848 132.019V110.369L605.844 107.837L606.692 128.493L546.848 132.019Z" fill="#504A44"/>
<path d="M223.278 135.887L546.751 109.896L561.396 89.2231V89.2231C564.738 89.2392 567.485 91.8652 567.65 95.203L569.413 130.707L221.622 149.118L223.278 135.887Z" fill="black"/>
<rect width="8.05701" height="135.013" transform="matrix(0.986663 -0.162776 0.162893 0.986644 234.215 11.1091)" fill="black"/>
<rect width="8.05703" height="134.99" transform="matrix(0.990959 0.134163 -0.134261 0.990946 276.723 7.89041)" fill="black"/>
<rect width="8.05634" height="131.239" transform="matrix(0.866105 0.499861 -0.500139 0.865945 323.402 31.7417)" fill="black"/>
<rect width="8.05544" height="114.973" transform="matrix(0.670002 0.742359 -0.742606 0.669729 347.508 64.7664)" fill="black"/>
<rect width="8.05463" height="110.098" transform="matrix(0.41922 0.907885 -0.908003 0.418965 362.098 99.5509)" fill="black"/>
<rect width="8.05414" height="110.105" transform="matrix(0.100472 0.99494 -0.994947 0.100399 369.941 135.993)" fill="black"/>
<rect width="8.05431" height="110.103" transform="matrix(-0.26115 0.965298 -0.965347 -0.26097 368.699 174.121)" fill="black"/>
<rect width="8.05499" height="114.942" transform="matrix(-0.543297 0.839541 -0.839724 -0.543014 361.57 209.421)" fill="black"/>
<rect width="8.05578" height="118.683" transform="matrix(-0.749506 0.661998 -0.662273 -0.749263 348.797 242.692)" fill="black"/>
<rect width="8.0565" height="122.9" transform="matrix(-0.896329 0.44339 -0.443653 -0.896199 328.715 268.356)" fill="black"/>
<rect width="8.05693" height="122.893" transform="matrix(-0.974236 0.225529 -0.225688 -0.9742 302.766 289.84)" fill="black"/>
<rect width="8.05708" height="126.73" transform="matrix(-0.999469 -0.0325904 0.0326145 -0.999468 267.168 300.816)" fill="black"/>
<rect width="8.05689" height="130.22" transform="matrix(-0.967354 -0.253428 0.253603 -0.967308 233.941 296.08)" fill="black"/>
<rect width="8.05647" height="124.973" transform="matrix(-0.890204 -0.455563 0.45583 -0.890067 205.422 278.581)" fill="black"/>
<rect width="8.0556" height="124.659" transform="matrix(-0.707237 -0.706976 0.707237 -0.706976 180.695 246.154)" fill="black"/>
<rect width="8.05474" height="103.049" transform="matrix(-0.459783 -0.888031 0.88817 -0.459515 166.25 210.174)" fill="black"/>
<rect width="8.05429" height="117.322" transform="matrix(-0.245389 -0.969425 0.969468 -0.245218 160.336 181.965)" fill="black"/>
<rect width="8.05412" height="108.815" transform="matrix(0.0742951 -0.997236 0.99724 0.0742405 160.367 146.982)" fill="black"/>
<rect width="8.0544" height="108.811" transform="matrix(0.316022 -0.948752 0.948822 0.315811 161.391 118.627)" fill="black"/>
<rect width="8.05505" height="103.359" transform="matrix(0.562889 -0.826533 0.826726 0.562605 168.625 85.2767)" fill="black"/>
<rect width="8.0562" height="105.726" transform="matrix(0.838475 -0.544941 0.545224 0.838291 191.176 46.2659)" fill="black"/>
<ellipse cx="264.81" cy="154.451" rx="21.7321" ry="28.9009" fill="black"/>
<ellipse cx="263.473" cy="154.451" rx="17.93" ry="25.2736" fill="#504A44"/>
<path d="M372.241 153.768C372.241 238.283 323.542 306.796 263.47 306.796C203.397 306.796 154.699 238.283 154.699 153.768C154.699 69.2529 203.397 0.73996 263.47 0.73996C323.542 0.73996 372.241 69.2529 372.241 153.768ZM161.645 153.768C161.645 232.886 207.233 297.024 263.47 297.024C319.706 297.024 365.295 232.886 365.295 153.768C365.295 74.6497 319.706 10.5116 263.47 10.5116C207.233 10.5116 161.645 74.6497 161.645 153.768Z" fill="black"/>
<path d="M365.476 154.195C365.476 238.71 316.825 307.223 256.81 307.223C196.796 307.223 148.145 238.71 148.145 154.195C148.145 69.6802 196.796 1.16727 256.81 1.16727C316.825 1.16727 365.476 69.6802 365.476 154.195ZM155.083 154.195C155.083 233.314 200.628 297.452 256.81 297.452C312.992 297.452 358.537 233.314 358.537 154.195C358.537 75.077 312.992 10.9389 256.81 10.9389C200.628 10.9389 155.083 75.077 155.083 154.195Z" fill="#504A44"/>
<path fill-rule="evenodd" clip-rule="evenodd" d="M166.095 34.932C175.296 30.1052 193.911 14.7082 204.303 16.3779C166.974 41.0074 143.863 99.442 143.863 142.212C143.863 184.981 155.345 250.501 194.318 277.845C151.23 263.326 142.133 237.859 120.888 226.405C99.0044 214.608 89.4831 200.021 74.1215 206.079C67.5907 208.654 61.9577 210.273 61.603 209.675C61.2465 209.079 65.938 202.417 72.0281 194.873L83.0986 181.16L64.4351 179.89C42.4769 178.394 38.2736 175.394 24.5064 151.393C18.7453 141.35 12.582 133.683 9.2746 132.446C4.34179 130.603 4.12971 130.102 7.37681 127.948C9.38798 126.613 16.4325 125.425 23.0327 125.305C33.9058 125.111 36.1711 126.246 47.1574 137.397C55.1582 145.516 61.4586 149.704 65.6747 149.704C74.2824 149.704 75.6336 144.716 67.7041 142.212C63.9396 141.024 58.8331 135.874 55.2276 129.628C47.7918 116.742 38.4235 109.795 28.0039 109.438L20.1751 109.167L45.7716 95.633L37.5441 90.0207C31.816 86.1166 24.9287 84.4952 14.8693 84.6796L0.421875 84.9444L4.81352 76.9201C18.4583 51.9831 44.1334 47.6386 83.2979 63.6439C95.842 68.7728 107.684 73.7849 109.611 74.7849C112.876 76.4769 112.845 76.0187 109.154 68.1267C106.975 63.4623 105.192 56.9151 105.192 53.5767C105.192 48.3618 105.903 47.8786 110.22 50.1462C122.289 56.4843 135.237 51.1187 166.095 34.932ZM166.095 51.9711C166.095 53.3003 163.532 56.9338 160.4 60.0476C153.696 66.7119 134.445 72.4896 134.445 67.0529C134.445 65.0869 137.445 63.4961 141.301 63.4193C143.865 63.3692 146.585 61.3786 149.644 59.1405C151.085 58.0861 152.601 56.9766 154.211 55.9892C165.313 49.1774 166.095 48.9158 166.095 51.9711ZM96.4563 91.1839C109.439 100.848 132.805 110.121 138.696 107.946L143.863 106.038L141.069 115.127C138.376 123.89 137.961 124.133 129.505 121.832C118.2 118.761 109.404 112.807 75.9389 85.5874C67.5341 78.7507 86.8229 84.0118 96.4563 91.1839ZM118.447 148.744C135.5 150.519 136.273 150.907 136.273 157.66C136.273 161.546 135.544 165.481 134.654 166.407C132.185 168.977 106.346 157.06 98.4565 149.719C93.5346 145.138 92.8271 143.765 96.0504 145.055C98.5643 146.064 108.644 147.722 118.447 148.744ZM141.758 199.873C141.758 203.454 122.795 199.667 116.39 194.805C112.156 191.59 112.946 191.089 124.441 189.701C136.954 188.191 141.758 191.015 141.758 199.873Z" fill="black"/>
<path d="M252.802 408.622H233.517V357.56H252.873C257.237 357.56 260.764 358.727 263.453 361.063C266.166 363.398 267.523 366.477 267.523 370.299C267.523 372.965 266.662 375.383 264.94 377.553C263.241 379.7 261.165 380.997 258.712 381.446V381.729C262.18 382.177 264.94 383.533 266.992 385.798C269.068 388.063 270.106 390.894 270.106 394.291C270.106 398.797 268.573 402.312 265.506 404.836C262.463 407.36 258.228 408.622 252.802 408.622ZM239.886 363.186V379.57H249.44C253.215 379.57 256.093 378.839 258.075 377.376C260.08 375.913 261.083 373.802 261.083 371.042C261.083 368.518 260.245 366.583 258.57 365.239C256.895 363.87 254.512 363.186 251.422 363.186H239.886ZM239.886 402.996H251.847C255.692 402.996 258.605 402.229 260.587 400.696C262.569 399.162 263.56 396.921 263.56 393.972C263.56 388.027 259.455 385.055 251.245 385.055H239.886V402.996ZM277.413 408.622V371.82H283.57V408.622H277.413ZM280.491 365.628C279.453 365.628 278.557 365.25 277.802 364.495C277.047 363.741 276.669 362.844 276.669 361.806C276.669 360.745 277.047 359.848 277.802 359.117C278.557 358.362 279.453 357.984 280.491 357.984C281.553 357.984 282.461 358.362 283.216 359.117C283.971 359.848 284.348 360.745 284.348 361.806C284.348 362.844 283.971 363.741 283.216 364.495C282.461 365.25 281.553 365.628 280.491 365.628ZM292.61 408.622V371.82H298.414V377.836H298.555C299.169 375.784 300.266 374.168 301.846 372.988C303.45 371.785 305.326 371.183 307.473 371.183C307.968 371.183 308.794 371.266 309.95 371.431V377.411C309.289 377.176 308.192 377.058 306.659 377.058C304.276 377.058 302.365 377.848 300.926 379.428C299.487 381.009 298.768 383.097 298.768 385.692V408.622H292.61Z" fill="black"/>
<path d="M354.848 409.471C347.606 409.471 341.873 407.112 337.65 402.394C333.428 397.652 331.316 391.224 331.316 383.109C331.316 374.993 333.428 368.565 337.65 363.823C341.873 359.081 347.606 356.71 354.848 356.71C362.091 356.71 367.823 359.081 372.046 363.823C376.269 368.565 378.38 374.993 378.38 383.109C378.38 388.016 377.578 392.344 375.974 396.095C374.37 399.846 372.081 402.842 369.109 405.084L375.868 414.39H368.72L363.978 407.879C361.265 408.941 358.222 409.471 354.848 409.471ZM354.848 403.597C356.759 403.597 358.564 403.326 360.262 402.783L353.893 394.008H361.041L365.393 399.953C367.469 398.207 369.062 395.895 370.17 393.017C371.279 390.139 371.834 386.836 371.834 383.109C371.834 376.81 370.3 371.82 367.233 368.14C364.19 364.436 360.062 362.585 354.848 362.585C349.635 362.585 345.494 364.436 342.428 368.14C339.384 371.82 337.863 376.81 337.863 383.109C337.863 389.384 339.384 394.373 342.428 398.077C345.494 401.757 349.635 403.597 354.848 403.597ZM398.213 404.022C401.115 404.022 403.545 403.126 405.503 401.333C407.485 399.516 408.475 397.287 408.475 394.645V391.637L398.638 392.238C396.161 392.403 394.238 393.005 392.87 394.043C391.525 395.081 390.853 396.473 390.853 398.219C390.853 399.964 391.525 401.368 392.87 402.43C394.215 403.491 395.996 404.022 398.213 404.022ZM396.833 409.259C393.177 409.259 390.216 408.245 387.951 406.216C385.71 404.187 384.59 401.521 384.59 398.219C384.59 395.057 385.746 392.533 388.057 390.646C390.393 388.759 393.684 387.697 397.93 387.461L408.475 386.86V383.781C408.475 381.54 407.768 379.782 406.352 378.508C404.937 377.235 402.955 376.598 400.407 376.598C398.072 376.598 396.173 377.117 394.71 378.155C393.247 379.169 392.316 380.596 391.915 382.436H385.97C386.182 379.157 387.597 376.468 390.216 374.368C392.858 372.245 396.302 371.183 400.549 371.183C404.866 371.183 408.287 372.269 410.811 374.439C413.359 376.609 414.633 379.523 414.633 383.179V408.622H408.794V402.288H408.652C407.544 404.388 405.916 406.074 403.769 407.348C401.622 408.622 399.31 409.259 396.833 409.259ZM437.12 409.259C432.402 409.259 428.592 407.525 425.69 404.057C422.812 400.589 421.373 395.977 421.373 390.221C421.373 384.489 422.812 379.889 425.69 376.421C428.568 372.929 432.331 371.183 436.978 371.183C439.573 371.183 441.897 371.773 443.949 372.953C446.002 374.132 447.582 375.748 448.691 377.801H448.833V357.56H454.99V408.622H449.116V402.394H449.01C447.807 404.541 446.179 406.228 444.126 407.454C442.074 408.658 439.738 409.259 437.12 409.259ZM438.288 376.598C435.032 376.598 432.449 377.836 430.538 380.313C428.627 382.767 427.672 386.069 427.672 390.221C427.672 394.397 428.627 397.711 430.538 400.165C432.449 402.618 435.032 403.845 438.288 403.845C441.472 403.845 444.032 402.607 445.966 400.129C447.901 397.629 448.868 394.326 448.868 390.221C448.868 386.116 447.889 382.826 445.931 380.349C443.997 377.848 441.449 376.598 438.288 376.598ZM476.168 404.022C479.07 404.022 481.499 403.126 483.458 401.333C485.439 399.516 486.43 397.287 486.43 394.645V391.637L476.593 392.238C474.116 392.403 472.193 393.005 470.825 394.043C469.48 395.081 468.808 396.473 468.808 398.219C468.808 399.964 469.48 401.368 470.825 402.43C472.169 403.491 473.95 404.022 476.168 404.022ZM474.788 409.259C471.131 409.259 468.171 408.245 465.906 406.216C463.665 404.187 462.544 401.521 462.544 398.219C462.544 395.057 463.7 392.533 466.012 390.646C468.348 388.759 471.639 387.697 475.885 387.461L486.43 386.86V383.781C486.43 381.54 485.722 379.782 484.307 378.508C482.891 377.235 480.91 376.598 478.362 376.598C476.026 376.598 474.127 377.117 472.665 378.155C471.202 379.169 470.27 380.596 469.869 382.436H463.924C464.137 379.157 465.552 376.468 468.171 374.368C470.813 372.245 474.257 371.183 478.503 371.183C482.821 371.183 486.241 372.269 488.765 374.439C491.313 376.609 492.587 379.523 492.587 383.179V408.622H486.748V402.288H486.607C485.498 404.388 483.87 406.074 481.724 407.348C479.577 408.622 477.265 409.259 474.788 409.259ZM501.132 408.622V371.82H506.936V377.695H507.077C507.974 375.689 509.33 374.109 511.147 372.953C512.963 371.773 515.086 371.183 517.516 371.183C520.017 371.183 522.164 371.797 523.956 373.024C525.749 374.227 527.047 375.949 527.849 378.19H527.991C529.005 375.996 530.527 374.286 532.555 373.059C534.608 371.809 536.931 371.183 539.526 371.183C543.159 371.183 546.061 372.28 548.231 374.474C550.425 376.645 551.522 379.558 551.522 383.215V408.622H545.365V384.63C545.365 382.106 544.693 380.148 543.348 378.756C542.027 377.341 540.152 376.633 537.722 376.633C535.292 376.633 533.298 377.447 531.741 379.075C530.184 380.679 529.406 382.731 529.406 385.232V408.622H523.249V383.958C523.249 381.74 522.565 379.971 521.196 378.65C519.828 377.305 518 376.633 515.711 376.633C513.282 376.633 511.265 377.482 509.66 379.181C508.08 380.879 507.29 383.002 507.29 385.55V408.622H501.132Z" fill="black"/>
<path d="M223.25 341.688L223.25 369.831" stroke="black" stroke-width="4.28307" stroke-linecap="round"/>
<path d="M194.137 352.66L214.869 373.393" stroke="black" stroke-width="4.28307" stroke-linecap="round"/>
<path d="M178.598 384L210.951 384" stroke="black" stroke-width="4.28307" stroke-linecap="round"/>
<path d="M190.809 416.391L213.24 393.959" stroke="black" stroke-width="4.28307" stroke-linecap="round"/>
<path d="M222.668 428.74L222.668 397.281" stroke="black" stroke-width="4.28307" stroke-linecap="round"/>
<circle cx="222.552" cy="384" r="4.60627" fill="black"/>
<path d="M254.542 352.307C255.377 351.468 255.38 350.107 254.508 349.307C247.946 343.286 239.817 339.231 231.044 337.626C221.569 335.893 211.793 337.101 203.019 341.089C194.245 345.077 186.89 351.656 181.934 359.948C176.978 368.24 174.656 377.852 175.279 387.503C175.901 397.154 179.438 406.385 185.418 413.966C191.398 421.547 199.537 427.118 208.75 429.936C217.963 432.754 227.813 432.685 236.986 429.739C245.48 427.011 253.02 421.936 258.754 415.115C259.516 414.209 259.337 412.86 258.401 412.136V412.136C257.459 411.408 256.108 411.588 255.338 412.496C250.14 418.617 243.335 423.174 235.678 425.633C227.336 428.313 218.379 428.375 210.001 425.812C201.623 423.25 194.221 418.184 188.783 411.29C183.345 404.396 180.129 396.001 179.562 387.225C178.996 378.448 181.107 369.707 185.614 362.166C190.121 354.625 196.81 348.643 204.789 345.016C212.768 341.39 221.658 340.291 230.275 341.867C238.183 343.314 245.516 346.95 251.456 352.346C252.338 353.147 253.701 353.152 254.542 352.307V352.307Z" fill="black"/>
<defs>
<clipPath id="clip0_2563_12510">
<rect width="170.389" height="119.017" fill="white" transform="translate(229.809 26.9415)"/>
</clipPath>
<clipPath id="clip1_2563_12510">
<rect width="98.0238" height="98.0238" fill="white" transform="translate(288.852 51.3409) rotate(-3.02384)"/>
</clipPath>
<clipPath id="clip2_2563_12510">
<rect width="65.9096" height="94.4785" fill="white" transform="translate(273.871 59.3248) rotate(-3.88697)"/>
</clipPath>
<clipPath id="clip3_2563_12510">
<rect width="65.9096" height="94.4785" fill="white" transform="translate(254.246 58.9797) rotate(-3.88697)"/>
</clipPath>
<clipPath id="clip4_2563_12510">
<rect width="65.6199" height="94.6847" fill="white" transform="matrix(0.992796 -0.119796 0.119884 0.992791 364.137 42.2739)"/>
</clipPath>
<clipPath id="clip5_2563_12510">
<rect width="111.123" height="110.554" fill="white" transform="matrix(0.996151 -0.0876359 0.0877005 0.996148 393.016 18.8251)"/>
</clipPath>
<clipPath id="clip6_2563_12510">
<rect width="99.481" height="99.975" fill="white" transform="matrix(-0.996189 -0.0872894 -0.0873523 0.996171 503.32 40.8067)"/>
</clipPath>
<clipPath id="clip7_2563_12510">
<rect width="99.4149" height="104.809" fill="white" transform="matrix(0.999419 0.0341767 -0.0342018 0.999412 497.188 24.47)"/>
</clipPath>
<clipPath id="clip8_2563_12510">
<rect width="92.8959" height="92.3192" fill="white" transform="matrix(0.999419 0.0341767 -0.0342018 0.999412 480.527 34.7678)"/>
</clipPath>
</defs>
</svg>
